<svg width="14" height="16" viewBox="0 0 14 16" fill="none" xmlns="http://www.w3.org/2000/svg">
<path d="M1.43476 16H12.5652C13.0262 16 13.4 15.6169 13.4 15.1444V8.27094C13.4 7.79842 13.0262 7.41533 12.5652 7.41533H11.7304V4.84849C11.7304 2.17503 9.60834 0 6.99998 0C4.39161 0 2.26954 2.17503 2.26954 4.84849V7.41533H1.43476C0.973736 7.41533 0.599976 7.79842 0.599976 8.27094V15.1444C0.599976 15.6169 0.973736 16 1.43476 16ZM3.93911 4.84849C3.93911 3.1186 5.31221 1.71123 6.99998 1.71123C8.68774 1.71123 10.0608 3.1186 10.0608 4.84849V7.41533H3.93911V4.84849Z" fill="#DFD4A6"/>
</svg>
