<svg width="16" height="16" viewBox="0 0 16 16" fill="none" xmlns="http://www.w3.org/2000/svg">
<path d="M4.26287 13.8628C4.26287 15.0297 3.31428 15.9782 2.13714 15.9782C0.959994 15.9782 0 15.0297 0 13.8628C0 12.6857 0.959994 11.7371 2.13714 11.7371C3.31428 11.7371 4.26287 12.6857 4.26287 13.8628Z" fill="#DFD4A6"/>
<path d="M0 8.50279C2 8.50279 3.87429 9.27994 5.29143 10.6959C6.70858 12.1017 7.4857 13.9885 7.4857 15.9999H10.56C10.56 10.1714 5.82857 5.43994 0 5.43994V8.50279Z" fill="#DFD4A6"/>
<path d="M0.0114746 3.06285C7.13147 3.06285 12.9257 8.86857 12.9257 16H16C16 7.17714 8.8229 0 0.0114746 0V3.06285Z" fill="#DFD4A6"/>
</svg>
