<svg width="17" height="18" viewBox="0 0 17 18" fill="none" xmlns="http://www.w3.org/2000/svg">
<path fill-rule="evenodd" clip-rule="evenodd" d="M9.89809 0C6.03526 0 2.89809 3.13833 2.89809 7C2.89809 8.62003 3.45021 10.1128 4.37641 11.2999L0.43934 15.2369C-0.146447 15.8227 -0.146447 16.7725 0.43934 17.3583C1.02513 17.9441 1.97487 17.9441 2.56066 17.3583L6.69476 13.2242C7.65492 13.7199 8.74412 14 9.89809 14C13.7609 14 16.8981 10.8617 16.8981 7C16.8981 3.13833 13.7609 0 9.89809 0ZM9.89809 3C7.69075 3 5.89809 4.79333 5.89809 7C5.89809 9.20667 7.69075 11 9.89809 11C12.1054 11 13.8981 9.20667 13.8981 7C13.8981 4.79333 12.1054 3 9.89809 3Z" fill="#DFD4A6"/>
</svg>
