<svg width="150" height="31" viewBox="0 0 150 31" fill="none" xmlns="http://www.w3.org/2000/svg">
<path d="M24.4645 11.2425L22.5693 11.9607L22.3867 12.4726L21.9622 12.7489C21.8419 11.1746 21.7643 10.5501 21.7307 10.5501L22.4154 10.541L23.6763 9.00246L21.8426 9.78923L21.6776 10.3249L19.8782 11.6894C19.918 12.0264 20.0208 13.051 19.9516 14.0539L20.3495 13.786C20.5216 21.2837 17.0941 24.1042 17.0941 24.1042C16.2276 23.7042 16.0038 23.4112 16.0038 23.4112C19.1299 19.9277 18.9865 14.8917 18.9809 14.7119L18.6515 14.9294C18.6515 14.9294 18.7865 13.3363 18.6984 12.5831L18.1221 13.0202C18.1088 12.5055 18.0787 12.0775 18.0438 11.7789C18.392 11.802 18.7515 11.7495 19.0466 11.5369C19.3578 11.311 19.5229 10.6452 19.5746 10.3592C19.6264 10.0746 19.5656 9.97805 19.3928 9.86616C19.2201 9.75496 18.8564 9.42557 18.7088 9.2773C18.7088 9.2773 19.0068 9.14932 19.704 9.47662C20.4565 9.83259 21.0279 9.65915 21.6699 8.70733L20.8992 8.81993L20.967 8.28842C20.9796 8.29402 20.9929 8.30101 21.0069 8.3094C21.1139 8.38353 21.4783 8.51711 21.651 8.55138C21.8245 8.58635 21.8196 8.56117 21.9287 8.62621C22.0378 8.68985 22.1308 8.71712 22.1881 8.68985C22.1881 8.68985 22.6182 8.93182 22.791 8.68985C22.791 8.68985 22.9574 8.78916 23.0413 8.81923C23.1707 8.86678 23.3798 8.94092 23.4476 8.92763C23.5169 8.91434 23.6812 8.98428 23.7078 8.99686C23.9791 9.13324 24.1449 9.0626 24.1834 8.99686C24.2232 8.93182 24.0148 8.71642 23.854 8.58215C23.6938 8.44787 23.5553 8.422 23.5553 8.422C23.6078 8.38703 23.5945 8.33458 23.4903 8.2094C23.3868 8.08281 23.0455 7.91497 23.0455 7.91497C23.0497 7.81496 22.6595 7.57299 22.4273 7.39605C22.1916 7.21842 22.2881 7.22751 22.0413 6.97295C21.7951 6.71628 20.6649 5.81972 20.102 5.41829C19.5397 5.01687 17.9955 3.83986 16.6744 3.41535C15.3562 2.99015 14.575 3.08666 14.0176 3.43284C13.4588 3.77902 13.5973 4.24199 13.698 4.52802C13.7959 4.81405 13.9882 5.17282 14.1008 5.39312C14.2127 5.61411 14.1218 5.60991 14.0701 5.64558C14.0183 5.67845 14.0736 5.76587 14.0232 5.75678C13.9715 5.74839 13.9393 5.81342 13.8742 5.88686C13.8421 5.92392 13.7463 5.95609 13.6218 5.98127C13.5973 5.87707 13.6623 5.79874 13.6623 5.79874C13.5749 5.74769 13.4253 5.7309 13.4253 5.7309C13.4434 5.69453 13.512 5.66936 13.512 5.66936C13.4169 5.64488 13.235 5.67705 13.235 5.67705C13.2644 5.6302 13.2903 5.6225 13.2903 5.6225C13.1196 5.56446 12.9672 5.70293 12.9056 5.77076C12.8301 5.63579 12.7336 5.54068 12.6378 5.45046C12.535 5.35465 12.4825 5.21618 12.372 5.10778C12.372 5.10778 12.4623 4.97071 12.3972 4.83364C12.3336 4.69726 12.1566 4.58746 12.0531 4.56159C12.0531 4.56159 12.1448 4.51473 12.1315 4.41123C12.1189 4.30772 12.0217 4.26856 11.9175 4.30213C11.8126 4.3336 11.6909 4.3336 11.6125 4.40563C11.6125 4.40563 11.5272 4.41472 11.4608 4.40633C11.5461 4.1217 11.5888 3.73286 11.1006 3.43214C10.5432 3.08596 9.76487 2.99015 8.44449 3.41466C7.12482 3.83986 5.57996 5.01617 5.01838 5.41759C4.4561 5.81902 3.32456 6.71559 3.08048 6.97225C2.83221 7.22681 2.92733 7.21772 2.69514 7.39535C2.46086 7.57229 2.07132 7.81426 2.07552 7.91427C2.07552 7.91427 1.73423 8.08281 1.63003 8.2087C1.52653 8.33388 1.51324 8.38633 1.56429 8.4213C1.56429 8.4213 1.42722 8.44717 1.26637 8.58145C1.10622 8.71572 0.898512 8.93112 0.936976 8.99616C0.976839 9.0619 1.13979 9.13254 1.41323 8.99616C1.43841 8.98358 1.60346 8.91364 1.67269 8.92693C1.74193 8.93952 1.95033 8.86608 2.07971 8.81853C2.16364 8.78776 2.33078 8.68915 2.33078 8.68915C2.50352 8.93112 2.93222 8.68915 2.93222 8.68915C2.98817 8.71573 3.08398 8.68915 3.19098 8.62551C3.29938 8.56047 3.29518 8.58565 3.46722 8.55068C3.64136 8.51641 4.00572 8.38353 4.11272 8.3087C4.12741 8.29751 4.14279 8.29122 4.15608 8.28633L4.22532 8.81993L3.45463 8.70733C4.09454 9.65915 4.66661 9.83329 5.41911 9.47662C6.11706 9.14932 6.41498 9.2773 6.41498 9.2773C6.26812 9.42557 5.90306 9.75496 5.73102 9.86616C5.55828 9.97875 5.49744 10.0746 5.54989 10.3592C5.60094 10.6452 5.76459 11.311 6.0779 11.5369C6.37302 11.7495 6.73249 11.8013 7.08076 11.7789C7.0458 12.0768 7.01642 12.5055 7.00174 13.0202L6.41988 12.5789C6.33176 13.3314 6.46603 14.9294 6.46603 14.9294L6.13734 14.7119C6.13035 14.8924 5.98838 19.9277 9.11587 23.4112C9.11587 23.4112 8.88998 23.7042 8.02489 24.1042C8.02489 24.1042 4.59597 21.283 4.77081 13.786L5.16874 14.0539C5.09811 13.0482 5.20161 12.0202 5.24077 11.6859L3.44694 10.3249L3.2812 9.78923L1.4475 9.00246L2.70983 10.541L3.39379 10.5501C3.35882 10.5501 3.2812 11.1746 3.16021 12.7489L2.7371 12.4726L2.55457 11.9607L0.660034 11.2425L2.00069 12.7391L2.66717 12.6971C2.66717 12.6971 1.9846 19.3346 4.23791 22.9062C6.11496 25.8778 8.84522 25.9015 11.3307 24.2322C11.2426 24.5224 10.9426 25.3861 10.1027 26.9604C10.1027 26.9604 10.5873 26.9604 11.1062 27.0485C11.1062 27.0485 11.0034 27.4807 10.9489 27.6108C10.8957 27.7443 10.9048 27.9632 11.1601 27.9751C11.4167 27.9828 11.7496 28.015 11.7496 28.015C11.7496 28.015 11.7042 28.3269 11.6972 28.4926C11.6895 28.7164 11.6678 28.8094 12.5588 28.8472C13.4924 28.8094 13.4316 28.7164 13.4225 28.4926C13.4155 28.3269 13.3728 28.015 13.3728 28.015C13.3728 28.015 13.7064 27.9835 13.9624 27.9751C14.2176 27.9632 14.2267 27.7443 14.1729 27.6108C14.1204 27.48 14.0134 27.0485 14.0134 27.0485C14.5337 26.9604 15.0184 26.9604 15.0184 26.9604C14.1771 25.3805 13.8756 24.5196 13.7868 24.2322C16.2744 25.9008 19.0068 25.8806 20.8852 22.9062C23.1378 19.3346 22.4553 12.6971 22.4553 12.6971L23.1217 12.7391L24.4645 11.2425ZM13.6183 8.67307C13.6924 8.33878 13.7526 8.05764 13.8218 8.10519C13.8903 8.15275 14.012 8.15764 14.0554 8.1017C14.0994 8.04365 14.112 8.03666 14.147 8.0961C14.182 8.15625 14.389 8.25625 14.5281 8.01847C14.6666 7.7807 14.6274 7.90168 14.6666 7.9926C14.7065 8.08281 14.8142 8.12198 14.9352 8.02687C15.0561 7.93245 15.1513 7.84853 15.238 7.80587C15.3233 7.76391 15.3275 7.78489 15.3751 7.69817C15.4233 7.61075 15.5009 7.57159 15.5044 7.51564C15.5086 7.45899 15.4527 7.39465 15.5359 7.35129C15.6177 7.30793 15.6569 7.27716 15.731 7.31213C15.8052 7.3471 15.8254 7.27716 15.8646 7.32472C15.9031 7.37228 15.9541 7.37717 16.0031 7.32472C16.0506 7.27297 16.0856 7.19114 16.1415 7.28625C16.1975 7.38067 16.3227 7.40235 16.3485 7.35479C16.3758 7.30793 16.3968 7.30304 16.4311 7.37717C16.466 7.4506 16.5912 7.50725 16.7255 7.48557C16.7255 7.48557 16.8507 7.65831 17.0031 7.63243C17.1556 7.60586 17.215 7.52893 17.2185 7.42612C17.2234 7.32192 17.1668 6.97225 17.2703 7.04848C17.3745 7.1261 17.3703 7.09184 17.3997 7.03029C17.4304 6.97155 17.478 7.03449 17.5304 7.0212C17.5822 7.01001 17.5731 6.94357 17.6598 7.03029C17.7472 7.11771 17.7549 7.16037 17.8375 7.18205C17.9193 7.20303 17.9543 7.22541 18.041 7.31633C18.1284 7.40724 18.2235 7.50655 18.3781 7.4499C18.3781 7.4499 18.4774 7.57928 18.5823 7.57089C18.5823 7.57089 18.7942 7.80098 18.9152 7.76671C18.9152 7.76671 19.1222 7.85203 19.1921 7.84434C19.262 7.83594 19.2746 7.78909 19.3187 7.81287C19.3613 7.84014 19.3446 7.73104 19.4089 7.80447C19.4725 7.8786 19.5907 8.00868 19.6642 7.987C19.6642 7.987 19.8383 8.13387 19.9712 8.14925C20.1062 8.16744 20.1453 8.2073 20.188 8.2073C20.2306 8.2073 20.2097 8.16394 20.288 8.22478C20.3649 8.28563 20.4789 8.315 20.5523 8.28563C20.6258 8.25415 20.6551 8.25835 20.7216 8.26744C20.7433 8.27024 20.7712 8.26744 20.802 8.26464C20.5845 8.5234 20.3006 8.72901 19.7726 8.56606C19.0725 8.34927 18.8627 8.45277 18.7179 8.60033C18.5704 8.7465 18.2508 9.1717 18.1627 9.44025C18.078 9.7081 18.1214 9.91581 18.6382 10.5221C18.6382 10.5221 17.9633 10.5648 17.0731 10.2788C16.1814 9.99414 15.359 9.88993 14.5288 10.2627C14.3848 10.3277 14.2512 10.3872 14.1267 10.4494C14.0344 10.3557 13.8043 10.1186 13.719 10.0109C13.719 10.0109 13.7749 9.73468 13.7707 9.57383C13.7658 9.392 13.7582 9.30668 13.6931 9.21506C13.6267 9.12764 13.5463 9.00596 13.6183 8.67307ZM17.1836 11.6033C16.7905 11.8516 16.1227 12.1432 15.1331 12.1432C14.361 12.1432 13.7658 11.9656 13.3434 11.7677C13.519 11.66 14.1994 11.2732 15.0561 11.2509C16.0513 11.2243 16.4842 11.3621 16.9605 11.5285C17.0255 11.5516 17.1017 11.5761 17.1836 11.6033ZM13.084 10.19C13.0896 10.1928 13.0945 10.1942 13.1001 10.1962C13.2756 10.2655 13.4581 10.2396 13.4581 10.2396C13.5148 10.2746 13.761 10.5061 13.8498 10.5935C13.5987 10.7299 13.377 10.8725 13.1602 11.0564C13.1078 10.8417 13.0308 10.4914 13.0532 10.3739C13.0658 10.3081 13.077 10.2452 13.084 10.19ZM11.851 5.45746C11.9482 5.5218 12.1371 5.63299 12.2028 5.79384C12.221 5.8421 12.2357 5.88826 12.2483 5.93231C12.1105 5.89805 12.0042 5.89595 11.9231 5.90924C11.7825 5.68195 11.6258 5.53368 11.4797 5.43578C11.6328 5.4141 11.765 5.39941 11.851 5.45746ZM11.0181 5.39242C11.0202 5.38752 11.023 5.38402 11.0251 5.37633C11.144 5.55187 11.4006 5.85608 11.8119 5.9449C11.7692 5.96588 11.737 5.99246 11.714 6.01554C11.4909 5.98616 11.295 5.9449 11.2426 5.88546C11.1776 5.81203 11.1482 5.74699 11.0957 5.75538C11.0447 5.76447 11.0999 5.67635 11.0489 5.64418C10.9964 5.60991 10.9076 5.61341 11.0181 5.39242ZM10.8468 8.16743C10.8649 8.28423 10.8964 8.41291 10.9573 8.54089C10.9412 8.57026 10.9258 8.59963 10.9111 8.6304C10.8761 8.36395 10.767 8.19051 10.7454 8.15834C10.781 8.17023 10.8153 8.17163 10.8468 8.16743ZM6.48352 10.5249C7.00244 9.91791 7.0451 9.7109 6.95908 9.44305C6.87236 9.1745 6.55275 8.74929 6.40519 8.60313C6.25833 8.45627 6.05132 8.35206 5.34987 8.56886C4.82186 8.73111 4.54003 8.5276 4.32113 8.26814C4.3505 8.27024 4.37638 8.27234 4.39666 8.26954C4.4631 8.26045 4.49177 8.25695 4.5673 8.28772C4.64003 8.3171 4.75333 8.28772 4.83026 8.22688C4.90858 8.16674 4.8869 8.2094 4.92956 8.2094C4.97292 8.2094 5.01209 8.16953 5.14566 8.15135C5.27994 8.13527 5.45338 7.9891 5.45338 7.9891C5.52751 8.01008 5.6429 7.88 5.70934 7.80657C5.77438 7.73314 5.7562 7.84224 5.80025 7.81496C5.84291 7.79119 5.8569 7.83804 5.92544 7.84643C5.99397 7.85413 6.20308 7.76881 6.20308 7.76881C6.32337 7.80377 6.53667 7.57299 6.53667 7.57299C6.63947 7.58208 6.73948 7.452 6.73948 7.452C6.89474 7.50865 6.99125 7.40864 7.07797 7.31842C7.16329 7.22751 7.19825 7.20513 7.28078 7.18415C7.3633 7.16177 7.37099 7.11911 7.45701 7.03239C7.54443 6.94567 7.53464 7.01281 7.58709 7.0233C7.63884 7.03659 7.6871 6.97295 7.71717 7.03239C7.74864 7.09393 7.74375 7.1282 7.84655 7.05057C7.94936 6.97364 7.89411 7.32332 7.8983 7.42822C7.9046 7.53103 7.96404 7.60865 8.1151 7.63453C8.26686 7.66111 8.39274 7.48767 8.39274 7.48767C8.52562 7.50865 8.6522 7.4527 8.68647 7.37927C8.72144 7.30514 8.74312 7.31003 8.76829 7.35689C8.79417 7.40514 8.92005 7.38277 8.9774 7.28835C9.03265 7.19324 9.06622 7.27437 9.11517 7.32682C9.16273 7.37927 9.21448 7.37437 9.25364 7.32682C9.29211 7.27926 9.31519 7.3485 9.38862 7.31423C9.46135 7.27926 9.50121 7.31003 9.58234 7.35339C9.66416 7.39675 9.60891 7.46109 9.61311 7.51774C9.6173 7.57369 9.69633 7.61285 9.74319 7.70027C9.79144 7.78699 9.79634 7.76531 9.88166 7.80797C9.96838 7.85063 10.0635 7.93455 10.1845 8.02896C10.2957 8.11568 10.3943 8.06043 10.4411 7.9863C10.4586 8.06323 10.4845 8.18911 10.5216 8.18911C10.5586 8.18911 10.5901 8.09121 10.6174 8.03036C10.6558 8.08351 10.6985 8.07023 10.7405 8.08631C10.7202 8.12547 10.4174 8.73391 10.7866 9.2787H10.7873C10.8048 9.2787 10.8188 9.25632 10.8321 9.21996C10.8705 9.57383 10.8496 9.65355 10.8496 9.65355C10.8496 9.65355 10.6831 9.86546 10.5635 10.2396C9.74389 9.88364 8.93054 9.99553 8.05146 10.2767C7.15839 10.5613 6.48352 10.5249 6.48352 10.5249ZM10.2768 11.2642C10.174 11.5726 10.0383 11.8887 9.85368 12.1404C8.93893 12.1146 8.31302 11.8418 7.93886 11.6033C8.02139 11.5761 8.09622 11.5516 8.16196 11.5285C8.63821 11.3621 9.07181 11.225 10.0663 11.2509C10.1383 11.253 10.2076 11.2593 10.2768 11.2642ZM7.32973 11.7243C7.40946 11.7103 7.48848 11.7068 7.5801 11.6845C7.83606 11.9411 8.55499 12.5139 9.90963 12.5139C11.6636 12.5139 12.5595 11.6712 12.5595 11.6712C12.5595 11.6712 13.4539 12.5167 15.2079 12.5167C16.5639 12.5167 17.2815 11.9502 17.5367 11.6943C17.6305 11.7166 17.7081 11.7103 17.7878 11.7236C18.0004 13.486 17.6472 15.9883 17.6472 15.9883H12.5588H7.4696C7.4696 15.989 7.11783 13.4867 7.32973 11.7243ZM7.4696 16.2932H12.5588H17.6465C17.6465 16.2932 17.4906 18.2402 16.6605 19.8731H12.5588H8.45568C7.62486 18.2395 7.4696 16.2932 7.4696 16.2932ZM12.5588 24.6273C9.5089 22.4195 8.61164 20.1606 8.61164 20.1606H12.5588H16.5045C16.5045 20.1606 15.6107 22.4195 12.5588 24.6273Z" fill="white"/>
<path d="M14.4659 15.7519C14.6429 15.7477 14.8058 15.6847 14.9429 15.5798C15.0163 15.6043 15.0911 15.6169 15.1695 15.6141C15.4436 15.6113 15.6821 15.4323 15.8129 15.17C15.9374 15.1868 16.0632 15.17 16.1779 15.1092C16.4276 14.9756 16.5416 14.6742 16.4877 14.3693C16.5024 14.3602 16.5136 14.349 16.5269 14.3392C16.7535 14.1497 16.7486 13.7748 16.5199 13.4965C16.5129 13.4874 16.5066 13.4804 16.4975 13.4734C16.5752 13.4153 16.6269 13.3321 16.6269 13.2342C16.6269 13.0615 16.4185 12.923 16.2269 12.923C16.0374 12.923 15.8283 13.0615 15.8283 13.2342V13.2356C15.8283 13.2454 15.7087 13.2783 15.6401 13.3377C15.5429 13.4174 15.517 13.5349 15.5038 13.6622C15.4688 13.6748 15.4471 13.686 15.4135 13.7049C15.3667 13.728 15.3331 13.7615 15.2967 13.7965C15.2408 13.7825 15.1897 13.7748 15.131 13.7769C15.0478 13.7776 14.9695 13.7965 14.8939 13.8273C14.7569 13.7336 14.5981 13.6797 14.4261 13.6846C13.9316 13.6923 13.5407 14.1644 13.5512 14.7343C13.5624 15.3071 13.9729 15.761 14.4659 15.7519Z" fill="white"/>
<path d="M8.63331 14.3385C8.64519 14.3483 8.65778 14.3595 8.67247 14.3686C8.61862 14.6735 8.73191 14.9749 8.98088 15.1085C9.09418 15.1693 9.22146 15.1861 9.34664 15.1693C9.47742 15.4316 9.7152 15.6106 9.98934 15.6134C10.0677 15.6162 10.1432 15.6043 10.2159 15.5791C10.3523 15.684 10.5153 15.747 10.6922 15.7512C11.1866 15.7603 11.5958 15.3064 11.6076 14.7343C11.6174 14.1637 11.2258 13.6923 10.7314 13.6846C10.5607 13.6797 10.4006 13.7336 10.2621 13.8266C10.1887 13.7965 10.1082 13.7783 10.0243 13.7769C9.96626 13.7748 9.90962 13.7825 9.85717 13.7951C9.8194 13.7615 9.77884 13.728 9.73128 13.7049C9.69841 13.686 9.66275 13.6734 9.62778 13.6622C9.61589 13.5349 9.59981 13.4174 9.5019 13.3377C9.43336 13.2776 9.29769 13.2454 9.29769 13.2356V13.2342C9.29769 13.0615 9.10537 12.923 8.91514 12.923C8.72352 12.923 8.55008 13.0615 8.55008 13.2342C8.55008 13.3321 8.59064 13.4153 8.66757 13.4734C8.66128 13.4797 8.65079 13.4874 8.6431 13.4965C8.41231 13.7727 8.40602 14.1483 8.63331 14.3385Z" fill="white"/>
<path d="M12.5916 19.6549L13.014 19.015L12.9336 18.7122L13.2658 18.7577C13.2882 18.8962 13.3777 19.0549 13.5106 19.0745C13.6449 19.0983 13.8665 19.0745 13.8665 19.0745L13.9924 18.9276C13.8372 18.7794 13.6448 18.6542 13.6448 18.6542C13.6001 17.7709 13.4455 17.1709 13.3315 16.8527C13.221 16.5345 13.0735 16.5254 12.7909 16.5624C12.5098 16.5995 11.7461 17.0604 11.7461 17.0604L11.6937 17.5037L11.9545 17.5324C11.9545 17.5324 11.8056 18.0297 11.7531 18.2087C11.7014 18.3877 11.7461 18.3793 11.8419 18.4472C11.9377 18.5129 12.3021 18.601 12.3021 18.601L12.1979 19.0612L12.5916 19.6549Z" fill="white"/>
<path d="M11.5986 14.0385C11.7503 14.9148 12.3147 14.9945 12.5378 14.9896C12.5343 15.2987 12.4812 15.5435 12.4812 15.5435L12.7588 15.7337C12.7889 15.3658 12.7826 15.0742 12.7595 14.842C13.4267 14.7455 13.563 13.7531 13.563 13.7531C12.9133 14.0462 12.7763 14.5161 12.7476 14.7294C12.7014 14.3756 12.6168 14.1825 12.5721 14.1028C12.9945 14.0559 13.3218 13.6986 13.3218 13.2636C13.3218 13.0202 13.219 12.8006 13.0518 12.6468L13.1903 12.3873L12.8959 12.446L12.7749 12.2209L12.5588 12.395L12.4294 12.2209L12.2909 12.4209L12.0308 12.274L12.1035 12.5097C11.8252 12.6468 11.6335 12.9328 11.6335 13.2636C11.6335 13.6818 11.9385 14.0273 12.3371 14.0965C12.4686 14.3028 12.5203 14.5651 12.535 14.8098C12.1706 14.228 11.5986 14.0385 11.5986 14.0385ZM12.514 14.0888C12.3105 14.0888 12.1448 13.7252 12.1448 13.2755C12.1448 12.8293 12.3105 12.4656 12.514 12.4656C12.7175 12.4656 12.8826 12.8293 12.8826 13.2755C12.8826 13.7252 12.7175 14.0888 12.514 14.0888Z" fill="white"/>
<path d="M13.2504 21.2488C13.1756 21.0676 13.1756 20.8886 13.2504 20.7061H12.235C12.1595 20.8886 12.1595 21.0676 12.235 21.2488H13.2504Z" fill="white"/>
<path d="M12.2357 22.5195C12.1601 22.7006 12.1601 23.0643 12.2357 23.2468H13.2511C13.1763 23.0643 13.1763 22.7013 13.2511 22.5195H12.2357Z" fill="white"/>
<path d="M13.4924 21.795L13.719 21.4313H12.1671L11.9965 21.2488H11.9258H11.3489L11.4293 21.4313H11.5853L11.751 21.795H13.4924Z" fill="white"/>
<path d="M13.4798 23.4286H13.4224H13.1651H12.9462H12.6895H12.5245H12.2503H12.1657L12.072 23.2468H11.7307L11.8349 23.4538L12.1133 23.607H13.4518L13.7218 23.451L13.7595 23.2468H13.5406L13.4798 23.4286Z" fill="white"/>
<path d="M54.861 10.4942C53.3952 9.05771 51.2258 8.29542 49.3208 8.29542C44.5135 8.29542 41.7287 11.9006 41.758 16.2393C41.758 19.9913 43.9862 23.6266 49.3208 23.6266C51.0797 23.6266 52.6917 23.1867 54.333 21.8089V17.6464H48.6172V14.7154H57.3822V23.1286C55.3303 25.3861 52.7798 26.7051 49.3208 26.7051C41.7874 26.7051 38.5333 21.6929 38.5333 16.24C38.5333 10.3186 42.3147 5.27702 49.3208 5.27702C52.0469 5.27702 54.8023 6.30297 56.9129 8.38423L54.861 10.4942Z" fill="white"/>
<path d="M81.0447 16.0491C81.0447 21.6117 77.6598 26.7044 70.5076 26.7044C63.3553 26.7044 59.9705 21.4942 59.9705 16.0785C59.9705 9.80881 64.3561 5.27632 70.5663 5.27632C77.6011 5.30569 81.0447 10.4858 81.0447 16.0491ZM70.5076 23.672C75.6289 23.672 77.778 20.0515 77.778 16.1071C77.778 12.3104 75.5995 8.36605 70.567 8.27793C65.7988 8.27793 63.2378 11.604 63.2378 16.1071C63.2966 19.7578 65.4156 23.672 70.5076 23.672Z" fill="white"/>
<path d="M93.947 26.7037H90.3915L81.5489 5.34135H85.3778L92.1545 22.6321L98.9613 5.34135H102.759L93.947 26.7037Z" fill="white"/>
<path d="M104.984 24.5483C104.984 27.4226 100.69 27.4226 100.69 24.5483C100.689 21.7082 104.984 21.7082 104.984 24.5483Z" fill="white"/>
<path d="M125.785 23.6342C123.66 25.7295 120.915 26.7037 118.023 26.7037C110.526 26.7037 107.161 21.5383 107.132 16.1078C107.102 10.6774 110.644 5.27562 118.023 5.27562C120.797 5.27562 123.483 6.30856 125.579 8.40451L123.365 10.5298C121.89 9.08358 119.941 8.40451 118.023 8.40451C112.769 8.40451 110.378 12.2712 110.408 16.0785C110.438 19.8564 112.681 23.6049 118.023 23.6049C119.941 23.6049 122.066 22.8076 123.513 21.3614L125.785 23.6342Z" fill="white"/>
<path d="M149.57 16.0813C149.57 21.6271 146.195 26.7037 139.065 26.7037C131.934 26.7037 128.56 21.5096 128.56 16.1106C128.56 9.86055 132.932 5.34135 139.124 5.34135C146.137 5.37073 149.57 10.5354 149.57 16.0813ZM139.065 23.6818C144.171 23.6818 146.313 20.0725 146.313 16.14C146.313 12.3544 144.141 8.42269 139.124 8.33457C134.37 8.33457 131.817 11.6502 131.817 16.14C131.875 19.7787 133.988 23.6818 139.065 23.6818Z" fill="white"/>
<path d="M32.2671 0.990005H29.9614V13.8468H32.2671V0.990005Z" fill="#FBD000"/>
<path d="M32.2671 13.8468H29.9614V22.4181H32.2671V13.8468Z" fill="#00549F"/>
<path d="M32.2671 22.4181H29.9614V30.99H32.2671V22.4181Z" fill="#D21A3A"/>
</svg>
