<svg width="240" height="93" viewBox="0 0 240 93" fill="none" xmlns="http://www.w3.org/2000/svg">
<path d="M9.19224 75.4493C4.45959 75.4493 0.591553 71.5813 0.591553 66.8487V9.19223C0.591553 4.45958 4.45959 0.591553 9.19224 0.591553H43.0034C47.736 0.591553 51.6041 4.45958 51.6041 9.19223V66.8487C51.6041 71.5813 47.736 75.4493 43.0034 75.4493H9.19224ZM3.00339 66.8487C3.00339 70.2616 5.77927 73.0375 9.19224 73.0375H43.0034C46.4164 73.0375 49.1922 70.2616 49.1922 66.8487V47.0989C42.2298 51.24 34.2662 53.3788 26.1661 53.3788C18.0205 53.3788 10.0569 51.1945 3.04889 47.0534V66.8487H3.00339Z" fill="#0488B7"/>
<path d="M43.0034 1.22867C47.4175 1.22867 50.967 4.82367 50.967 9.19227V66.8487C50.967 71.2628 47.372 74.8123 43.0034 74.8123H9.19226C4.77816 74.8123 1.22867 71.2628 1.22867 66.8487V9.19227C1.22867 4.77816 4.77816 1.22867 9.19226 1.22867H43.0034ZM9.19226 73.6291H43.0034C46.7349 73.6291 49.7838 70.5802 49.7838 66.8487V46.0523C42.9124 50.3299 34.8123 52.8328 26.1206 52.8328C17.4289 52.8328 9.28328 50.3299 2.41183 46.0523V66.8942C2.41183 70.5802 5.46075 73.6291 9.19226 73.6291ZM43.0034 0H9.19226C4.14107 0 0 4.14108 0 9.19227V66.8487C0 71.8999 4.14107 76.041 9.19226 76.041H43.0034C48.0546 76.041 52.1957 71.8999 52.1957 66.8487V9.19227C52.1957 4.14108 48.0546 0 43.0034 0ZM9.19226 72.446C6.14335 72.446 3.6405 69.9431 3.6405 66.8942V48.1456C10.4664 52.0137 18.2025 54.0159 26.1661 54.0159C34.0842 54.0159 41.7747 52.0137 48.6007 48.1456V66.8487C48.6007 69.8976 46.0978 72.4005 43.0489 72.4005H9.19226V72.446Z" fill="white"/>
<path d="M49.7839 46.0523V66.8487C49.7839 70.5802 46.735 73.6291 43.0035 73.6291H9.1923C5.46079 73.6291 2.41187 70.5802 2.41187 66.8487V46.0068C9.28331 50.3299 17.4289 52.7873 26.1206 52.7873C34.8123 52.7873 42.9124 50.3299 49.7839 46.0523Z" fill="white"/>
<path d="M11.6952 59.2493H10.603V64.9376H11.6952V59.2493Z" fill="#0488B7"/>
<path d="M12.7874 64.5733L13.0149 63.7087C13.2425 63.7997 13.47 63.8907 13.6975 63.9817C13.9251 64.0728 14.1981 64.1183 14.4256 64.1183C14.7442 64.1183 15.0172 64.0728 15.1992 63.9362C15.3813 63.8452 15.4723 63.6632 15.4723 63.4812C15.4723 63.3447 15.4268 63.2081 15.2902 63.1171C15.1537 62.9806 14.9262 62.8896 14.6532 62.7076L14.3801 62.5711C14.0161 62.3435 13.6975 62.1615 13.47 61.9795C13.2425 61.7974 13.0604 61.6154 12.8784 61.3879C12.6964 61.1604 12.6509 60.9328 12.6509 60.6598C12.6509 60.3868 12.7419 60.1137 12.8784 59.8862C13.0149 59.6587 13.2425 59.4766 13.561 59.3401C13.834 59.2036 14.1981 59.1581 14.6076 59.1581C15.1082 59.1581 15.6088 59.2946 16.2004 59.5676L15.8363 60.4323C15.6088 60.3413 15.3813 60.2502 15.1992 60.1592C15.0172 60.1137 14.7897 60.0682 14.6076 60.0682C14.3346 60.0682 14.1526 60.1137 13.9706 60.2047C13.7885 60.2957 13.743 60.4323 13.743 60.6143C13.743 60.7963 13.7885 60.9328 13.9251 61.0238C14.0616 61.1149 14.2436 61.2514 14.5621 61.4334L14.8352 61.5699L15.0627 61.7064C15.3813 61.8885 15.6543 62.0705 15.8363 62.207C16.0183 62.3435 16.2004 62.5256 16.3369 62.7076C16.4734 62.8896 16.5189 63.1626 16.5189 63.4357C16.5189 63.7542 16.4279 64.0273 16.2914 64.2548C16.1549 64.4823 15.8818 64.6643 15.5633 64.8009C15.2447 64.9374 14.8807 64.9829 14.4256 64.9829C14.1981 64.9829 13.8795 64.9374 13.561 64.8464C13.2425 64.8009 12.9694 64.7099 12.7874 64.5733Z" fill="#0488B7"/>
<path d="M19.8863 59.1125C20.4779 59.1125 20.9785 59.2491 21.388 59.5221C21.7976 59.7951 22.1161 60.1137 22.3437 60.5687C22.5712 61.0238 22.6622 61.5244 22.6622 62.0705C22.6622 62.662 22.5257 63.1626 22.2982 63.6177C22.0706 64.0727 21.7521 64.4368 21.297 64.6643C20.8875 64.9373 20.3869 65.0739 19.8408 65.0739C19.2492 65.0739 18.7487 64.9373 18.3391 64.6643C17.9296 64.3913 17.611 64.0727 17.3835 63.6177C17.156 63.1626 17.0649 62.662 17.0649 62.116C17.0649 61.5244 17.2015 61.0238 17.429 60.5687C17.6565 60.1137 17.9751 59.7496 18.4301 59.5221C18.8852 59.2491 19.3403 59.1125 19.8863 59.1125ZM18.2481 62.116C18.2481 62.5255 18.2936 62.8441 18.4301 63.1626C18.5666 63.4811 18.7487 63.7087 19.0217 63.8907C19.2492 64.0727 19.5678 64.1637 19.8863 64.1637C20.2049 64.1637 20.4779 64.0727 20.7509 63.9362C21.024 63.7997 21.206 63.5266 21.3425 63.2536C21.479 62.9351 21.5701 62.571 21.5701 62.116C21.5701 61.7064 21.5246 61.3879 21.388 61.0693C21.2515 60.7508 21.0695 60.5232 20.7965 60.3412C20.5234 60.1592 20.2504 60.0682 19.9318 60.0682C19.6133 60.0682 19.3403 60.1592 19.1127 60.3412C18.8397 60.5232 18.6577 60.7508 18.5211 61.0693C18.2936 61.3424 18.2481 61.7064 18.2481 62.116Z" fill="#0488B7"/>
<path d="M28.0318 60.3413C28.3503 60.5233 28.6234 60.7508 28.8054 61.1149C28.9874 61.4334 29.0784 61.843 29.0784 62.3436C29.0784 62.9806 28.8964 63.4812 28.5779 63.9363C28.2593 64.3913 27.8043 64.7554 27.3037 65.0284C26.8031 65.3015 26.3025 65.4835 25.802 65.529L25.6655 64.6189C26.7121 64.3458 27.3947 63.9363 27.7587 63.3902C27.4857 63.5267 27.2127 63.5722 26.9396 63.5722C26.5756 63.5722 26.3025 63.4812 25.984 63.3447C25.711 63.2082 25.4834 62.9806 25.3469 62.7076C25.1649 62.4346 25.1194 62.1615 25.1194 61.843C25.1194 61.5244 25.2104 61.2059 25.3469 60.9329C25.4834 60.6598 25.711 60.4778 25.984 60.2958C26.257 60.1592 26.5756 60.0682 26.8941 60.0682C27.3037 60.1137 27.7132 60.2048 28.0318 60.3413ZM26.3025 62.4801C26.4846 62.6621 26.6666 62.7531 26.9396 62.7531C27.3492 62.7531 27.7587 62.6166 28.0318 62.3891C28.0318 61.934 27.9408 61.57 27.7132 61.3424C27.5312 61.1149 27.2582 61.0239 26.8941 61.0239C26.6666 61.0239 26.4391 61.1149 26.257 61.2514C26.075 61.3879 25.984 61.6155 25.984 61.843C26.075 62.0705 26.1205 62.2981 26.3025 62.4801Z" fill="#0488B7"/>
<path d="M29.488 62.5711C29.488 62.116 29.5791 61.661 29.8066 61.2969C29.9886 60.9329 30.3071 60.6143 30.6257 60.4323C30.9897 60.2048 31.3993 60.1138 31.8089 60.1138C32.2639 60.1138 32.628 60.2048 32.992 60.4323C33.3561 60.6599 33.6291 60.9329 33.8111 61.2969C33.9932 61.661 34.1297 62.0705 34.1297 62.5711C34.1297 63.0717 34.0387 63.4812 33.8111 63.8453C33.6291 64.2093 33.3106 64.5279 32.992 64.7554C32.628 64.9829 32.2184 65.0739 31.8089 65.0739C31.3538 65.0739 30.9897 64.9829 30.6257 64.7554C30.2616 64.5279 29.9886 64.2548 29.8066 63.8453C29.5791 63.4812 29.488 63.0262 29.488 62.5711ZM30.4892 62.5256C30.4892 62.8442 30.5347 63.1172 30.6712 63.3447C30.8077 63.5722 30.9442 63.7998 31.1718 63.9363C31.3538 64.0728 31.6268 64.1638 31.8544 64.1638C32.1274 64.1638 32.3549 64.1183 32.537 63.9818C32.719 63.8453 32.901 63.6633 32.992 63.4357C33.1285 63.2082 33.174 62.9352 33.174 62.6621C33.174 62.3436 33.1285 62.1161 32.992 61.843C32.8555 61.6155 32.719 61.4335 32.4914 61.2969C32.3094 61.1604 32.0364 61.1149 31.8089 61.1149C31.5358 61.1149 31.3083 61.1604 31.1263 61.2969C30.9442 61.4335 30.7622 61.6155 30.6257 61.843C30.5347 61.9795 30.4892 62.2526 30.4892 62.5256Z" fill="#0488B7"/>
<path d="M34.5847 62.5711C34.5847 62.116 34.6757 61.661 34.9033 61.2969C35.0853 60.9329 35.4038 60.6143 35.7224 60.4323C36.0864 60.2048 36.496 60.1138 36.9055 60.1138C37.3606 60.1138 37.7246 60.2048 38.0887 60.4323C38.4527 60.6599 38.7258 60.9329 38.9078 61.2969C39.0898 61.661 39.2264 62.0705 39.2264 62.5711C39.2264 63.0717 39.1353 63.4812 38.9078 63.8453C38.7258 64.2093 38.4072 64.5279 38.0887 64.7554C37.7246 64.9829 37.3151 65.0739 36.9055 65.0739C36.496 65.0739 36.0864 64.9829 35.7224 64.7554C35.3583 64.5279 35.0853 64.2548 34.9033 63.8453C34.6757 63.4812 34.5847 63.0262 34.5847 62.5711ZM35.5859 62.5256C35.5859 62.8442 35.6314 63.1172 35.7679 63.3447C35.9044 63.5722 36.0409 63.7998 36.2229 63.9363C36.4505 64.0728 36.678 64.1638 36.9055 64.1638C37.1786 64.1638 37.4061 64.1183 37.5881 63.9818C37.7702 63.8453 37.9522 63.6633 38.0887 63.4357C38.2252 63.2082 38.2707 62.9352 38.2707 62.6621C38.2707 62.3436 38.2252 62.1161 38.0887 61.843C37.9522 61.6155 37.8157 61.4335 37.5881 61.2969C37.4061 61.1604 37.1331 61.1149 36.9055 61.1149C36.6325 61.1149 36.405 61.1604 36.2229 61.2969C36.0409 61.4335 35.8589 61.6155 35.7679 61.843C35.6314 61.9795 35.5859 62.2526 35.5859 62.5256Z" fill="#0488B7"/>
<path d="M40.9101 64.9374V61.4334L39.9545 61.7974L39.5449 60.9783L41.2287 60.2047H41.9568V64.9374H40.9101Z" fill="#0488B7"/>
<path d="M26.0752 23.5721C23.9364 23.5721 22.2527 21.8429 22.2527 19.7041C22.2527 17.5653 23.9819 15.8816 26.1207 15.8816C28.2595 15.8816 29.9432 17.6108 29.9432 19.7496C29.9432 21.8429 28.214 23.5721 26.0752 23.5721ZM26.0752 17.3378C24.7555 17.3378 23.6634 18.4299 23.6634 19.7496C23.6634 21.0693 24.7555 22.1614 26.0752 22.1614C27.3949 22.1614 28.487 21.0693 28.487 19.7496C28.5326 18.3844 27.4404 17.3378 26.0752 17.3378Z" fill="white"/>
<path d="M19.0217 25.802C17.611 24.1638 16.7919 22.0705 16.7919 19.7497C16.7919 17.884 17.338 16.2002 18.2481 14.744L17.1104 13.8794C16.0183 15.5631 15.3357 17.5654 15.3357 19.7497C15.3357 22.4346 16.3368 24.9374 17.9751 26.8032L19.0217 25.802Z" fill="white"/>
<path d="M18.0205 12.6963L19.0216 13.6975C19.3402 13.3334 19.6587 13.0149 20.0228 12.6963L19.0216 11.6952C18.7031 11.9682 18.3391 12.3323 18.0205 12.6963Z" fill="white"/>
<path d="M26.1205 9.01013C23.9362 9.01013 21.934 9.64722 20.2502 10.7849L21.1149 11.9225C22.5711 10.9669 24.3003 10.4208 26.1661 10.4208C28.5779 10.4208 30.8532 11.3309 32.5824 12.9692L33.8111 12.1956C31.7633 10.1478 29.0329 9.01013 26.1205 9.01013Z" fill="white"/>
<path d="M30.3981 23.7089C29.3059 24.8465 27.8042 25.5746 26.1205 25.5746C22.8896 25.5746 20.2502 22.9353 20.2502 19.7043C20.2502 16.4734 22.8896 13.834 26.1205 13.834C27.3037 13.834 28.4413 14.1981 29.4425 14.8351L30.7621 14.016C29.488 12.9694 27.8497 12.3778 26.166 12.3778C22.1615 12.3778 18.885 15.6543 18.885 19.6588C18.885 23.6634 22.1615 26.9398 26.166 26.9398C28.3503 26.9398 30.2616 25.9842 31.6268 24.4825L30.3981 23.7089Z" fill="white"/>
<path d="M31.3083 27.4857C29.8066 28.4868 28.0319 29.0784 26.1206 29.0784C23.7998 29.0784 21.7065 28.2138 20.0683 26.8031L19.0671 27.8042C20.9329 29.4425 23.4357 30.4891 26.1206 30.4891C28.3504 30.4891 30.4437 29.8065 32.1729 28.6234L31.3083 27.4857Z" fill="white"/>
<path d="M34.7211 13.288L30.5801 15.8818C30.5801 15.8818 31.9908 17.5201 31.9908 19.7499C31.9908 20.7965 31.7177 21.7521 31.2627 22.5712L32.4003 23.3904C33.0374 22.2982 33.4015 21.0695 33.4015 19.7043C33.4015 18.5212 33.1284 17.338 32.5368 16.2914L34.2661 15.1992C35.0397 16.5644 35.4037 18.1116 35.4037 19.7043C35.4037 22.3892 34.2206 24.8466 32.4003 26.5303L33.2649 27.6679C35.4492 25.7112 36.8144 22.8443 36.8144 19.7043C36.8599 15.9273 34.7211 13.288 34.7211 13.288Z" fill="white"/>
<path d="M18.4756 35.8135C16.8374 35.8135 15.4722 37.1787 15.4722 38.8169C15.4722 40.4551 16.8374 41.8203 18.4756 41.8203C20.1593 41.8203 21.479 40.4551 21.479 38.8169C21.479 37.1787 20.1138 35.8135 18.4756 35.8135ZM18.4756 40.5916C17.4744 40.5916 16.7008 39.818 16.7008 38.8169C16.7008 37.8613 17.5199 37.0422 18.4756 37.0422C19.4767 37.0422 20.2503 37.8158 20.2503 38.8169C20.2503 39.7725 19.4312 40.5916 18.4756 40.5916Z" fill="white"/>
<path d="M8.3731 41.6381H7.09892V36.4959H8.3731V41.6381ZM7.73601 35.8589C7.32645 35.8589 6.9624 35.5403 6.9624 35.0852C6.9624 34.6757 7.28095 34.3116 7.73601 34.3116C8.14557 34.3116 8.50962 34.6302 8.50962 35.0852C8.50962 35.4948 8.19107 35.8589 7.73601 35.8589Z" fill="white"/>
<path d="M25.4836 35.8135C23.7999 35.8135 22.4802 37.1787 22.4802 38.8169V41.6838H23.7999V38.7259C23.7999 37.8157 24.5735 37.0422 25.4836 37.0422C26.3938 37.0422 27.1674 37.7702 27.1674 38.6804V41.6838H28.4871V38.8169C28.4871 37.1332 27.1674 35.8135 25.4836 35.8135Z" fill="white"/>
<path d="M32.537 40.6827C32.537 40.6827 32.355 40.6827 32.264 40.6827C31.7179 40.6827 31.4448 40.5462 31.4448 39.7726V36.8147H32.5825V35.8136H31.4448V34.6759H30.1252V35.8136H29.3516V36.7692H30.1252V39.5451C30.1252 39.9546 30.1707 40.5462 30.3982 41.0013C30.6712 41.5018 31.1718 41.7749 31.8544 41.7749C32.173 41.7749 32.4915 41.7294 32.4915 41.7294L32.537 40.6827Z" fill="white"/>
<path d="M12.5597 41.8203C10.8759 41.8203 9.51074 40.4551 9.51074 38.8169C9.51074 37.1332 10.8759 35.8135 12.5597 35.8135C13.9704 35.8135 14.744 36.7691 14.744 36.7691L13.9249 37.7702C13.9249 37.7702 13.4243 37.0876 12.5142 37.0876C11.5585 37.0876 10.7394 37.8613 10.7394 38.8624C10.7394 39.818 11.513 40.6371 12.5142 40.6371C13.4243 40.6371 13.9249 39.9545 13.9249 39.9545L14.744 40.9557C14.7895 40.8647 13.9704 41.8203 12.5597 41.8203Z" fill="white"/>
<path d="M43.0035 41.8203C41.3198 41.8203 39.9546 40.4551 39.9546 38.8169C39.9546 37.1332 41.3198 35.8135 43.0035 35.8135C44.4142 35.8135 45.1878 36.7691 45.1878 36.7691L44.3687 37.7702C44.3687 37.7702 43.8681 37.0876 42.958 37.0876C42.0024 37.0876 41.1833 37.8613 41.1833 38.8624C41.1833 39.818 41.9569 40.6371 42.958 40.6371C43.8681 40.6371 44.3687 39.9545 44.3687 39.9545L45.1878 40.9557C45.2333 40.8647 44.4597 41.8203 43.0035 41.8203Z" fill="white"/>
<path d="M36.2684 35.7679C34.4937 35.7679 33.447 37.2242 33.447 38.8169C33.447 40.5916 34.6757 41.8203 36.4504 41.8203C38.2252 41.8203 38.9078 40.5006 38.9078 40.5006L37.9976 39.818C37.9976 39.818 37.5426 40.6371 36.4504 40.6371C35.4948 40.6371 34.7667 40.0455 34.7212 39.1809H38.9988C38.9988 39.1809 38.9988 38.9079 38.9988 38.8169C39.0443 37.4972 38.4072 35.7679 36.2684 35.7679ZM34.7667 38.1798C34.8577 37.4062 35.4948 36.9056 36.2684 36.9056C37.042 36.9056 37.6336 37.4062 37.7246 38.1798H34.7667Z" fill="white"/>
<path d="M12.6052 90.6939L13.1058 90.6483C13.1513 90.9214 13.1968 91.1489 13.2878 91.2854C13.3788 91.4219 13.5154 91.5585 13.6974 91.6495C13.8794 91.7405 14.0614 91.786 14.289 91.786C14.6075 91.786 14.835 91.695 15.0171 91.5585C15.1991 91.422 15.2901 91.1944 15.2901 90.9669C15.2901 90.8304 15.2446 90.6938 15.1991 90.6028C15.1536 90.5118 15.0171 90.4208 14.926 90.3298C14.7895 90.2388 14.5165 90.1478 14.1069 90.0568C13.7429 89.9658 13.4698 89.8292 13.2878 89.6927C13.1058 89.5562 13.0148 89.4197 12.9238 89.2376C12.8328 89.0556 12.7873 88.8736 12.7873 88.6461C12.7873 88.2365 12.9238 87.918 13.1968 87.6449C13.4698 87.3719 13.7884 87.2809 14.2434 87.2809C14.562 87.2809 14.7895 87.3264 15.0171 87.4629C15.2446 87.5994 15.4266 87.7359 15.5631 87.9635C15.6997 88.191 15.7452 88.464 15.7452 88.7371L15.2446 88.7826C15.1991 88.464 15.1081 88.2365 14.9715 88.0545C14.7895 87.918 14.562 87.827 14.289 87.827C13.9704 87.827 13.7429 87.8725 13.6064 88.009C13.4243 88.1455 13.3788 88.3275 13.3788 88.5551C13.3788 88.7371 13.4243 88.9191 13.5609 89.0101C13.6974 89.1011 13.9249 89.2377 14.3345 89.3287C14.744 89.4197 15.0171 89.5562 15.1991 89.6017C15.4266 89.7382 15.6541 89.8747 15.7452 90.1023C15.8817 90.3298 15.9272 90.5573 15.9272 90.8304C15.9272 91.1034 15.8817 91.3764 15.7452 91.604C15.6086 91.8315 15.4266 92.0135 15.1991 92.15C14.9715 92.2866 14.6985 92.3321 14.38 92.3321C13.8794 92.3321 13.4698 92.1956 13.1968 91.877C12.7873 91.604 12.6052 91.1944 12.6052 90.6939Z" fill="#090609"/>
<path d="M19.4312 90.5574L19.9773 90.7395C19.8408 91.2856 19.6588 91.6951 19.3402 91.9681C19.0217 92.2412 18.6576 92.3777 18.2481 92.3777C17.884 92.3777 17.5655 92.2867 17.2924 92.1047C17.0194 91.9226 16.7919 91.6496 16.6554 91.24C16.4733 90.8305 16.3823 90.3754 16.3823 89.7839C16.3823 89.2378 16.4733 88.7827 16.6554 88.4187C16.8374 88.0546 17.0649 87.7361 17.338 87.554C17.611 87.372 17.975 87.281 18.2936 87.281C18.7031 87.281 19.0217 87.4175 19.2947 87.6451C19.5678 87.8726 19.7953 88.2366 19.8863 88.7372L19.3402 88.8737C19.1582 88.1911 18.7942 87.8271 18.2481 87.8271C17.975 87.8271 17.7475 87.9181 17.5655 88.0546C17.3835 88.1911 17.2014 88.4187 17.1104 88.6917C16.9739 88.9647 16.9284 89.3743 16.9284 89.7839C16.9284 90.4664 17.0649 90.967 17.2924 91.3311C17.52 91.6496 17.8385 91.8316 18.2481 91.8316C18.5211 91.8316 18.7942 91.7406 19.0217 91.5131C19.2492 91.2856 19.3857 90.967 19.4312 90.5574Z" fill="#090609"/>
<path d="M22.0706 87.9638V87.3722H24.7099V87.8273C24.3004 88.3278 23.9818 89.0104 23.6633 89.8295C23.3447 90.6487 23.2082 91.4678 23.1627 92.2414H22.6166C22.6166 91.8318 22.7076 91.3312 22.7987 90.7852C22.9352 90.2391 23.0717 89.693 23.2992 89.1924C23.5268 88.6919 23.7543 88.2823 23.9818 87.9183H22.0706V87.9638Z" fill="#090609"/>
<path d="M25.165 90.967L25.6656 90.876C25.7566 91.5131 26.0297 91.8317 26.4392 91.8317C26.6667 91.8317 26.8488 91.7406 27.0308 91.5586C27.2128 91.3766 27.3038 91.1035 27.3038 90.8305C27.3038 90.5575 27.2128 90.3299 27.0763 90.1479C26.9398 89.9659 26.7578 89.8749 26.5302 89.8749C26.4392 89.8749 26.3027 89.8749 26.1662 89.9204L26.2117 89.3743H26.3027C26.5302 89.3743 26.7578 89.2833 26.8943 89.1468C27.0308 89.0103 27.1218 88.7827 27.1218 88.5552C27.1218 88.3277 27.0763 88.1457 26.9398 88.0091C26.8033 87.8726 26.6667 87.7816 26.4847 87.7816C26.3027 87.7816 26.1207 87.8726 25.9842 88.0091C25.8476 88.1457 25.7566 88.3732 25.7111 88.6917L25.2105 88.6007C25.2561 88.1912 25.3926 87.8726 25.6201 87.6451C25.8476 87.4175 26.1207 87.3265 26.4392 87.3265C26.7578 87.3265 27.0308 87.4631 27.2583 87.6906C27.4859 87.9181 27.6224 88.2367 27.6224 88.6007C27.6224 88.8282 27.5769 89.0103 27.4859 89.1923C27.3948 89.3743 27.2583 89.5108 27.0763 89.6019C27.2583 89.6474 27.3493 89.7384 27.4859 89.8294C27.5769 89.9204 27.6679 90.0569 27.7589 90.2389C27.8044 90.421 27.8499 90.603 27.8499 90.8305C27.8499 91.2856 27.7134 91.6496 27.4404 91.9227C27.1673 92.1957 26.8488 92.3777 26.4847 92.3777C26.1207 92.3777 25.8476 92.2412 25.6201 92.0137C25.3471 91.7406 25.2105 91.3766 25.165 90.967Z" fill="#090609"/>
<path d="M29.0784 89.6019C28.8964 89.5108 28.7143 89.3743 28.6233 89.2378C28.5323 89.0558 28.4868 88.8737 28.4868 88.6007C28.4868 88.2367 28.5778 87.9181 28.8054 87.6906C29.0329 87.4631 29.3059 87.3265 29.6245 87.3265C29.943 87.3265 30.2616 87.4631 30.4436 87.6906C30.6711 87.9181 30.7621 88.2367 30.7621 88.6007C30.7621 88.8282 30.7166 89.0558 30.6256 89.1923C30.5346 89.3743 30.3981 89.4653 30.1705 89.5563C30.3981 89.6474 30.6256 89.8294 30.7166 90.0114C30.8076 90.1934 30.8986 90.512 30.8986 90.8305C30.8986 91.2856 30.7621 91.6496 30.5346 91.9227C30.3071 92.1957 29.943 92.3322 29.579 92.3322C29.2149 92.3322 28.8964 92.1957 28.6233 91.9227C28.3503 91.6496 28.2593 91.2856 28.2593 90.8305C28.2593 90.512 28.3048 90.2389 28.4413 90.0114C28.6688 89.8294 28.8509 89.6474 29.0784 89.6019ZM28.8509 90.8305C28.8509 91.1491 28.9419 91.3766 29.0784 91.5586C29.2604 91.7406 29.4424 91.8317 29.67 91.8317C29.8975 91.8317 30.0795 91.7406 30.2616 91.5586C30.4436 91.3766 30.4891 91.1491 30.4891 90.8305C30.4891 90.512 30.3981 90.2844 30.2616 90.1024C30.0795 89.9204 29.8975 89.8294 29.67 89.8294C29.4424 89.8294 29.2604 89.9204 29.0784 90.1024C28.9419 90.3299 28.8509 90.5575 28.8509 90.8305ZM28.9874 88.5552C28.9874 88.7827 29.0329 89.0103 29.1694 89.1468C29.3059 89.2833 29.4424 89.3743 29.6245 89.3743C29.8065 89.3743 29.943 89.2833 30.0795 89.1468C30.216 89.0103 30.2616 88.8282 30.2616 88.6007C30.2616 88.3732 30.216 88.1911 30.0795 88.0546C29.943 87.9181 29.8065 87.8271 29.6245 87.8271C29.4424 87.8271 29.3059 87.9181 29.1694 88.0546C29.0784 88.1456 28.9874 88.3277 28.9874 88.5552Z" fill="#090609"/>
<path d="M33.0831 92.2869V91.1037H31.3083V90.5576L33.1741 87.3722H33.5837V90.5576H34.1297V91.1037H33.5837V92.2869H33.0831ZM33.0831 90.5121V88.2823L31.8089 90.5121H33.0831Z" fill="#090609"/>
<path d="M34.5847 90.7849V90.1934H36.1319V90.7849H34.5847Z" fill="#090609"/>
<path d="M38.4072 92.2867H37.9067V88.4187C37.7701 88.5552 37.6336 88.6917 37.4516 88.8282C37.2696 88.9647 37.0875 89.0558 36.9055 89.1468V88.5552C37.1786 88.4187 37.4061 88.1911 37.6336 87.9636C37.8611 87.7361 37.9977 87.5085 38.0887 87.281H38.4072V92.2867Z" fill="#090609"/>
<path d="M71.2628 75.4493C66.5301 75.4493 62.6621 71.5813 62.6621 66.8487V9.19223C62.6621 4.45958 66.5301 0.591553 71.2628 0.591553H105.074C109.807 0.591553 113.675 4.45958 113.675 9.19223V66.8487C113.675 71.5813 109.807 75.4493 105.074 75.4493H71.2628ZM65.1194 66.8487C65.1194 70.2616 67.8953 73.0375 71.3083 73.0375H105.119C108.532 73.0375 111.308 70.2616 111.308 66.8487V47.0989C104.346 51.24 96.3822 53.3788 88.2821 53.3788C80.1365 53.3788 72.1729 51.1945 65.165 47.0534V66.8487H65.1194Z" fill="#0488B7"/>
<path d="M105.074 1.22867C109.488 1.22867 113.038 4.82367 113.038 9.19227V66.8487C113.038 71.2628 109.443 74.8123 105.074 74.8123H71.2628C66.8487 74.8123 63.2992 71.2628 63.2992 66.8487V9.19227C63.2992 4.77816 66.8487 1.22867 71.2628 1.22867H105.074ZM71.2628 73.6291H105.074C108.805 73.6291 111.854 70.5802 111.854 66.8487V46.0523C104.983 50.3299 96.8829 52.8328 88.1912 52.8328C79.4995 52.8328 71.3538 50.3299 64.4824 46.0523V66.8942C64.4824 70.5802 67.5313 73.6291 71.2628 73.6291ZM105.074 0H71.2628C66.2116 0 62.0706 4.14108 62.0706 9.19227V66.8487C62.0706 71.8999 66.2116 76.041 71.2628 76.041H105.074C110.125 76.041 114.266 71.8999 114.266 66.8487V9.19227C114.266 4.14108 110.171 0 105.074 0ZM71.2628 72.446C68.2139 72.446 65.7111 69.9431 65.7111 66.8942V48.1456C72.537 52.0137 80.2731 54.0159 88.2367 54.0159C96.1547 54.0159 103.845 52.0137 110.671 48.1456V66.8487C110.671 69.8976 108.168 72.4005 105.119 72.4005H71.2628V72.446Z" fill="white"/>
<path d="M111.854 46.0523V66.8487C111.854 70.5802 108.806 73.6291 105.074 73.6291H71.2629C67.5313 73.6291 64.4824 70.5802 64.4824 66.8487V46.0068C71.3539 50.3299 79.4995 52.7873 88.1912 52.7873C96.8829 52.7873 104.983 50.3299 111.854 46.0523Z" fill="white"/>
<path d="M72.0819 59.2493H70.9897V64.9376H72.0819V59.2493Z" fill="#0488B7"/>
<path d="M73.1741 64.5733L73.4016 63.7087C73.6292 63.7997 73.8567 63.8907 74.0842 63.9817C74.3573 64.0728 74.5848 64.1183 74.8123 64.1183C75.1309 64.1183 75.4039 64.0728 75.5859 63.9362C75.768 63.8452 75.859 63.6632 75.859 63.4812C75.859 63.3447 75.8135 63.2081 75.677 63.1171C75.5404 62.9806 75.3129 62.8896 75.0399 62.7076L74.7668 62.5711C74.4028 62.3435 74.0842 62.1615 73.8567 61.9795C73.6292 61.7974 73.4472 61.6154 73.2651 61.3879C73.1286 61.1604 73.0376 60.9328 73.0376 60.6598C73.0376 60.3868 73.1286 60.1137 73.2651 59.8862C73.4016 59.6587 73.6292 59.4766 73.9477 59.3401C74.2208 59.2036 74.5848 59.1581 74.9944 59.1581C75.4949 59.1581 75.9955 59.2946 76.5871 59.5676L76.223 60.4323C75.9955 60.3413 75.768 60.2502 75.5859 60.1592C75.4039 60.1137 75.1764 60.0682 74.9944 60.0682C74.7213 60.0682 74.5393 60.1137 74.3573 60.2047C74.1753 60.2957 74.1297 60.4323 74.1297 60.6143C74.1297 60.7963 74.1753 60.9328 74.3118 61.0238C74.4483 61.1149 74.6303 61.2514 74.9489 61.4334L75.2219 61.5699L75.4494 61.7064C75.768 61.8885 76.041 62.0705 76.223 62.207C76.4051 62.3435 76.5871 62.5256 76.7236 62.7076C76.8601 62.8896 76.9056 63.1626 76.9056 63.4357C76.9056 63.7542 76.8146 64.0273 76.6781 64.2548C76.4961 64.4823 76.2685 64.6643 75.95 64.8009C75.6315 64.9374 75.2219 64.9829 74.8123 64.9829C74.5848 64.9829 74.2663 64.9374 73.9477 64.8464C73.6747 64.8009 73.4016 64.7099 73.1741 64.5733Z" fill="#0488B7"/>
<path d="M80.3185 59.1125C80.91 59.1125 81.4106 59.2491 81.8202 59.5221C82.2297 59.7951 82.5483 60.1137 82.7758 60.5687C83.0033 61.0238 83.0943 61.5244 83.0943 62.0705C83.0943 62.662 82.9578 63.1626 82.7303 63.6177C82.5028 64.0727 82.1842 64.4368 81.7291 64.6643C81.3196 64.9373 80.819 65.0739 80.2729 65.0739C79.6814 65.0739 79.1808 64.9373 78.7712 64.6643C78.3617 64.3913 78.0431 64.0727 77.8156 63.6177C77.5881 63.1626 77.4971 62.662 77.4971 62.116C77.4971 61.5244 77.6336 61.0238 77.8611 60.5687C78.0886 60.1137 78.4072 59.7496 78.8623 59.5221C79.3173 59.2946 79.7724 59.1125 80.3185 59.1125ZM78.6347 62.116C78.6347 62.5255 78.6802 62.8441 78.8167 63.1626C78.9533 63.4811 79.1353 63.7087 79.4083 63.8907C79.6359 64.0727 79.9544 64.1637 80.2729 64.1637C80.5915 64.1637 80.8645 64.0727 81.1376 63.9362C81.4106 63.7997 81.5926 63.5266 81.7291 63.2536C81.8657 62.9351 81.9567 62.571 81.9567 62.116C81.9567 61.7064 81.9112 61.3879 81.7747 61.0693C81.6381 60.7508 81.4561 60.5232 81.1831 60.3412C80.91 60.1592 80.637 60.0682 80.3185 60.0682C79.9999 60.0682 79.7269 60.1592 79.4993 60.3412C79.2263 60.5232 79.0443 60.7508 78.9078 61.0693C78.7257 61.3424 78.6347 61.7064 78.6347 62.116Z" fill="#0488B7"/>
<path d="M86.7348 64.9374V61.4334L85.7792 61.7974L85.3696 60.9783L87.0989 60.2047H87.827V64.9374H86.7348Z" fill="#0488B7"/>
<path d="M92.7872 64.4825H92.0136V65.5747H90.9215V64.4825H88.6006L88.4641 63.5724L91.1945 60.1594H92.0136V63.5724H92.8782L92.7872 64.4825ZM89.6473 63.5724H90.9215V61.9342L89.6473 63.5724Z" fill="#0488B7"/>
<path d="M93.2878 62.5711C93.2878 62.116 93.3789 61.661 93.6064 61.2969C93.7884 60.9329 94.107 60.6143 94.4255 60.4323C94.7895 60.2048 95.1991 60.1138 95.6087 60.1138C96.0637 60.1138 96.4278 60.2048 96.7918 60.4323C97.1559 60.6599 97.4289 60.9329 97.6109 61.2969C97.793 61.661 97.9295 62.0705 97.9295 62.5711C97.9295 63.0717 97.8385 63.4812 97.6109 63.8453C97.4289 64.2093 97.1104 64.5279 96.7918 64.7554C96.4278 64.9829 96.0182 65.0739 95.6087 65.0739C95.1991 65.0739 94.7895 64.9829 94.4255 64.7554C94.0614 64.5279 93.7884 64.2548 93.6064 63.8453C93.3789 63.4812 93.2878 63.0262 93.2878 62.5711ZM94.289 62.5256C94.289 62.8442 94.3345 63.1172 94.471 63.3447C94.6075 63.5722 94.744 63.7998 94.9261 63.9363C95.1536 64.0728 95.3811 64.1638 95.6087 64.1638C95.8362 64.1638 96.1092 64.1183 96.2913 63.9818C96.4733 63.8453 96.6553 63.6633 96.7918 63.4357C96.9283 63.2082 96.9738 62.9352 96.9738 62.6621C96.9738 62.3436 96.9283 62.1161 96.7918 61.843C96.6553 61.6155 96.5188 61.4335 96.2913 61.2969C96.1092 61.1604 95.8362 61.1149 95.6087 61.1149C95.3356 61.1149 95.1081 61.1604 94.9261 61.2969C94.744 61.4335 94.562 61.6155 94.471 61.843C94.3345 61.9795 94.289 62.2526 94.289 62.5256Z" fill="#0488B7"/>
<path d="M98.3389 62.5711C98.3389 62.116 98.4299 61.661 98.6574 61.2969C98.8394 60.9329 99.158 60.6143 99.4765 60.4323C99.8406 60.2048 100.25 60.1138 100.66 60.1138C101.115 60.1138 101.479 60.2048 101.843 60.4323C102.207 60.6599 102.48 60.9329 102.662 61.2969C102.844 61.661 102.981 62.0705 102.981 62.5711C102.981 63.0717 102.889 63.4812 102.662 63.8453C102.48 64.2093 102.161 64.5279 101.843 64.7554C101.479 64.9829 101.069 65.0739 100.66 65.0739C100.205 65.0739 99.8406 64.9829 99.4765 64.7554C99.1125 64.5279 98.8394 64.2548 98.6574 63.8453C98.4754 63.4812 98.3389 63.0262 98.3389 62.5711ZM99.34 62.5256C99.34 62.8442 99.3855 63.1172 99.522 63.3447C99.6586 63.5722 99.7951 63.7998 100.023 63.9363C100.205 64.0728 100.478 64.1638 100.705 64.1638C100.978 64.1638 101.206 64.1183 101.388 63.9818C101.57 63.8453 101.752 63.6633 101.843 63.4357C101.979 63.2082 102.025 62.9352 102.025 62.6621C102.025 62.3436 101.979 62.1161 101.843 61.843C101.706 61.6155 101.57 61.4335 101.342 61.2969C101.16 61.1604 100.887 61.1149 100.66 61.1149C100.387 61.1149 100.159 61.1604 99.9771 61.2969C99.7951 61.4335 99.613 61.6155 99.4765 61.843C99.431 61.9795 99.34 62.2526 99.34 62.5256Z" fill="#0488B7"/>
<path d="M104.664 64.9374V61.4334L103.709 61.7974L103.299 60.9783L105.028 60.2047H105.756V64.9374H104.664Z" fill="#0488B7"/>
<path d="M88.1912 23.5721C86.0524 23.5721 84.3687 21.8429 84.3687 19.7041C84.3687 17.5653 86.0979 15.8816 88.2367 15.8816C90.3755 15.8816 92.0592 17.6108 92.0592 19.7496C92.0137 21.8429 90.2845 23.5721 88.1912 23.5721ZM88.1912 17.3378C86.8715 17.3378 85.7793 18.4299 85.7793 19.7496C85.7793 21.0693 86.8715 22.1614 88.1912 22.1614C89.5109 22.1614 90.603 21.0693 90.603 19.7496C90.603 18.3844 89.5109 17.3378 88.1912 17.3378Z" fill="white"/>
<path d="M81.1377 25.802C79.727 24.1638 78.9079 22.0705 78.9079 19.7497C78.9079 17.884 79.4539 16.2002 80.3641 14.744L79.2264 13.8794C78.1343 15.5631 77.4517 17.5654 77.4517 19.7497C77.4517 22.4346 78.4528 24.9374 80.091 26.8032L81.1377 25.802Z" fill="white"/>
<path d="M80.1365 12.6963L81.1376 13.6975C81.4562 13.3334 81.7747 13.0149 82.1388 12.6963L81.1376 11.6952C80.7736 11.9682 80.455 12.3323 80.1365 12.6963Z" fill="white"/>
<path d="M88.2365 9.01013C86.0522 9.01013 84.0499 9.64722 82.3662 10.7849L83.2308 11.9225C84.687 10.9669 86.4163 10.4208 88.282 10.4208C90.6939 10.4208 92.9692 11.3309 94.6984 12.9692L95.9271 12.1956C93.8793 10.1478 91.1489 9.01013 88.2365 9.01013Z" fill="white"/>
<path d="M92.5141 23.7089C91.4219 24.8465 89.9202 25.5746 88.2365 25.5746C85.0055 25.5746 82.3662 22.9353 82.3662 19.7043C82.3662 16.4734 85.0055 13.834 88.2365 13.834C89.4196 13.834 90.5573 14.1981 91.5584 14.8351L92.8781 14.016C91.6039 12.9694 89.9657 12.3778 88.282 12.3778C84.2774 12.3778 81.001 15.6543 81.001 19.6588C81.001 23.6634 84.2774 26.9398 88.282 26.9398C90.4663 26.9398 92.3775 25.9842 93.7427 24.4825L92.5141 23.7089Z" fill="white"/>
<path d="M93.3789 27.4857C91.8772 28.4868 90.1024 29.0784 88.1912 29.0784C85.8703 29.0784 83.7771 28.2138 82.1388 26.8031L81.1377 27.8042C83.0035 29.4425 85.5063 30.4891 88.1912 30.4891C90.421 30.4891 92.5143 29.8065 94.2435 28.6234L93.3789 27.4857Z" fill="white"/>
<path d="M96.8374 13.288L92.6963 15.8818C92.6963 15.8818 94.107 17.5201 94.107 19.7499C94.107 20.7965 93.8339 21.7521 93.3789 22.5712L94.5165 23.3904C95.1536 22.2982 95.5177 21.0695 95.5177 19.7043C95.5177 18.5212 95.2446 17.338 94.6531 16.2914L96.3823 15.1992C97.1559 16.5644 97.52 18.1116 97.52 19.7043C97.52 22.3892 96.3368 24.8466 94.5165 26.5303L95.3812 27.6679C97.5655 25.7112 98.9307 22.8443 98.9307 19.7043C98.9307 15.9273 96.8374 13.288 96.8374 13.288Z" fill="white"/>
<path d="M80.5461 35.8135C78.9079 35.8135 77.5427 37.1787 77.5427 38.8169C77.5427 40.4551 78.9079 41.8203 80.5461 41.8203C82.2299 41.8203 83.5495 40.4551 83.5495 38.8169C83.5495 37.1787 82.2299 35.8135 80.5461 35.8135ZM80.5461 40.5916C79.545 40.5916 78.7714 39.818 78.7714 38.8169C78.7714 37.8613 79.5905 37.0422 80.5461 37.0422C81.5473 37.0422 82.3209 37.8158 82.3209 38.8169C82.3209 39.7725 81.5473 40.5916 80.5461 40.5916Z" fill="white"/>
<path d="M70.4891 41.6381H69.2149V36.4959H70.4891V41.6381ZM69.852 35.8589C69.4424 35.8589 69.0784 35.5403 69.0784 35.0852C69.0784 34.6757 69.3969 34.3116 69.852 34.3116C70.2615 34.3116 70.6256 34.6302 70.6256 35.0852C70.6256 35.4948 70.2615 35.8589 69.852 35.8589Z" fill="white"/>
<path d="M87.5996 35.8135C85.9159 35.8135 84.5962 37.1787 84.5962 38.8169V41.6838H85.9159V38.7259C85.9159 37.8157 86.6895 37.0422 87.5996 37.0422C88.5097 37.0422 89.2833 37.7702 89.2833 38.6804V41.6838H90.603V38.8169C90.603 37.1332 89.2378 35.8135 87.5996 35.8135Z" fill="white"/>
<path d="M94.653 40.6827C94.653 40.6827 94.4709 40.6827 94.3799 40.6827C93.8339 40.6827 93.5608 40.5462 93.5608 39.7726V36.8147H94.6985V35.8136H93.5608V34.6759H92.2411V35.8136H91.4675V36.7692H92.2411V39.5451C92.2411 39.9546 92.2866 40.5462 92.5142 41.0013C92.7872 41.5018 93.2878 41.7749 93.9704 41.7749C94.2889 41.7749 94.6075 41.7294 94.6075 41.7294L94.653 40.6827Z" fill="white"/>
<path d="M74.6756 41.8203C72.9919 41.8203 71.6267 40.4551 71.6267 38.8169C71.6267 37.1332 72.9919 35.8135 74.6756 35.8135C76.0863 35.8135 76.8599 36.7691 76.8599 36.7691L76.0408 37.7702C76.0408 37.7702 75.5403 37.0876 74.6301 37.0876C73.6745 37.0876 72.8554 37.8613 72.8554 38.8624C72.8554 39.818 73.629 40.6371 74.6301 40.6371C75.5403 40.6371 76.0408 39.9545 76.0408 39.9545L76.8599 40.9557C76.9054 40.8647 76.0863 41.8203 74.6756 41.8203Z" fill="white"/>
<path d="M105.119 41.8203C103.436 41.8203 102.071 40.4551 102.071 38.8169C102.071 37.1332 103.436 35.8135 105.119 35.8135C106.53 35.8135 107.304 36.7691 107.304 36.7691L106.485 37.7702C106.485 37.7702 105.984 37.0876 105.074 37.0876C104.118 37.0876 103.299 37.8613 103.299 38.8624C103.299 39.818 104.073 40.6371 105.074 40.6371C105.984 40.6371 106.485 39.9545 106.485 39.9545L107.304 40.9557C107.349 40.8647 106.53 41.8203 105.119 41.8203Z" fill="white"/>
<path d="M98.339 35.7679C96.5642 35.7679 95.5176 37.2242 95.5176 38.8169C95.5176 40.5916 96.7462 41.8203 98.521 41.8203C100.296 41.8203 100.978 40.5006 100.978 40.5006L100.068 39.818C100.068 39.818 99.6131 40.6371 98.521 40.6371C97.5654 40.6371 96.8373 40.0455 96.7918 39.1809H101.069C101.069 39.1809 101.069 38.9079 101.069 38.8169C101.16 37.4972 100.478 35.7679 98.339 35.7679ZM96.8828 38.1798C96.9738 37.4062 97.6109 36.9056 98.3845 36.9056C99.1581 36.9056 99.7497 37.4062 99.8407 38.1798H96.8828Z" fill="white"/>
<path d="M64.9829 90.603L65.4835 90.5575C65.529 90.8306 65.5745 91.0581 65.6655 91.1946C65.7565 91.3311 65.893 91.4677 66.0751 91.5587C66.2571 91.6497 66.4391 91.6952 66.6666 91.6952C66.9852 91.6952 67.2127 91.6042 67.3947 91.4676C67.5768 91.3311 67.6678 91.1036 67.6678 90.8761C67.6678 90.7396 67.6223 90.603 67.5768 90.512C67.5313 90.421 67.3947 90.33 67.3037 90.239C67.1672 90.148 66.8942 90.057 66.4846 89.9659C66.1206 89.8749 65.8475 89.7384 65.6655 89.6019C65.4835 89.4654 65.3925 89.3289 65.3015 89.1468C65.2104 88.9648 65.1649 88.7828 65.1649 88.5553C65.1649 88.1457 65.3014 87.8272 65.5745 87.5541C65.8475 87.2811 66.1661 87.1901 66.6211 87.1901C66.9397 87.1901 67.1672 87.2356 67.3947 87.3721C67.6223 87.5086 67.8043 87.6451 67.9408 87.8727C68.0773 88.1002 68.1228 88.3732 68.1228 88.6463L67.6223 88.6918C67.5768 88.3732 67.4858 88.1457 67.3492 87.9637C67.1672 87.8272 66.9397 87.7361 66.6666 87.7361C66.3481 87.7361 66.1206 87.7816 65.984 87.9182C65.802 88.0547 65.7565 88.2367 65.7565 88.4642C65.7565 88.6463 65.802 88.8283 65.9385 88.9193C66.0751 89.0103 66.3026 89.1468 66.7121 89.2378C67.1217 89.3289 67.3947 89.4654 67.5768 89.5109C67.8043 89.6474 68.0318 89.7839 68.1228 90.0115C68.2594 90.239 68.3049 90.4665 68.3049 90.7396C68.3049 91.0126 68.2594 91.2856 68.1228 91.5132C67.9863 91.7407 67.8043 91.9227 67.5768 92.0592C67.3492 92.1958 67.0762 92.2413 66.7577 92.2413C66.2571 92.2413 65.8475 92.1047 65.5745 91.7862C65.1649 91.5587 64.9829 91.1491 64.9829 90.603Z" fill="#090609"/>
<path d="M68.4868 92.1959L70.034 87.2357H70.6256L72.3093 92.1959H71.7178L71.2627 90.6942H69.488L69.0329 92.1959H68.4868ZM69.67 90.1936H71.0352L70.6256 88.8284C70.4891 88.4189 70.3981 88.0548 70.3526 87.7818C70.3071 88.1003 70.2161 88.4189 70.125 88.7374L69.67 90.1936Z" fill="#090609"/>
<path d="M72.446 90.7397V90.1481H73.9933V90.7397H72.446Z" fill="#090609"/>
<path d="M77.4972 90.4666L78.0432 90.6487C77.9067 91.1947 77.7247 91.6043 77.4061 91.8773C77.0876 92.1504 76.7236 92.2869 76.314 92.2869C75.95 92.2869 75.6314 92.1959 75.3584 92.0139C75.0853 91.8318 74.8578 91.5588 74.7213 91.1492C74.5393 90.7397 74.4482 90.2846 74.4482 89.693C74.4482 89.147 74.5393 88.6919 74.7213 88.3278C74.9033 87.9638 75.1308 87.6453 75.4039 87.4632C75.6769 87.2812 76.041 87.1902 76.3595 87.1902C76.7691 87.1902 77.0876 87.3267 77.3606 87.5542C77.6337 87.7818 77.8612 88.1458 77.9522 88.6464L77.4061 88.7829C77.2241 88.1003 76.8601 87.7363 76.314 87.7363C76.041 87.7363 75.8134 87.8273 75.6314 87.9638C75.4494 88.1003 75.2674 88.3278 75.1763 88.6009C75.0398 88.8739 74.9943 89.2835 74.9943 89.693C74.9943 90.3756 75.1308 90.8762 75.3584 91.2402C75.5859 91.5588 75.9044 91.7408 76.314 91.7408C76.587 91.7408 76.8601 91.6498 77.0876 91.4223C77.2696 91.1947 77.4062 90.9217 77.4972 90.4666Z" fill="#090609"/>
<path d="M78.7258 92.1959V87.2357H81.6382V87.8273H79.2264V89.329H81.4562V89.9206H79.2264V91.6043H81.7292V92.1959H78.7258Z" fill="#090609"/>
<path d="M82.4573 92.1959V87.2357H84.2775C84.6416 87.2357 84.9146 87.2812 85.0966 87.3722C85.2787 87.4632 85.4152 87.5998 85.5517 87.8273C85.6882 88.0548 85.7337 88.2824 85.7337 88.5554C85.7337 88.9194 85.6427 89.238 85.4607 89.4655C85.2787 89.6931 85.0056 89.8296 84.5961 89.9206C84.7326 90.0116 84.8691 90.1026 84.9601 90.1936C85.1421 90.3756 85.2787 90.6032 85.3697 90.8307L86.0978 92.1959H85.4152L84.8691 91.1493C84.6416 90.7397 84.5051 90.4667 84.414 90.3301C84.323 90.1936 84.1865 90.1026 84.0955 90.0571C84.0045 90.0116 83.868 89.9661 83.6859 89.9661H83.0489V92.1504H82.4573V92.1959ZM83.0033 89.4655H84.141C84.414 89.4655 84.5961 89.42 84.7326 89.3745C84.8691 89.329 84.9601 89.238 85.0511 89.1015C85.1421 88.965 85.1877 88.8284 85.1877 88.6464C85.1877 88.4189 85.0966 88.1913 84.9601 88.0548C84.8236 87.9183 84.5961 87.8273 84.323 87.8273H83.0489V89.4655H83.0033Z" fill="#090609"/>
<path d="M86.5984 92.1959V87.2357H89.5108V87.8273H87.099V89.329H89.3288V89.9206H87.099V91.6043H89.6018V92.1959H86.5984Z" fill="#090609"/>
<path d="M91.6951 90.9215L92.1956 90.876C92.2411 91.1946 92.3322 91.4221 92.4687 91.5586C92.6052 91.6951 92.7872 91.7861 92.9692 91.7861C93.1968 91.7861 93.4243 91.6951 93.5608 91.4676C93.7428 91.2401 93.8339 90.967 93.8339 90.5575C93.8339 90.1934 93.7428 89.9204 93.6063 89.7384C93.4243 89.5563 93.2423 89.4653 92.9692 89.4653C92.8327 89.4653 92.6962 89.5108 92.5597 89.6019C92.4232 89.6929 92.3322 89.7839 92.2411 89.9659L91.7861 89.8749L92.1956 87.3265H94.1979V87.9181H92.5597L92.3322 89.2378C92.5597 89.0103 92.8327 88.9193 93.1058 88.9193C93.4243 88.9193 93.7429 89.0558 93.9704 89.3743C94.2434 89.6474 94.3344 90.0569 94.3344 90.5575C94.3344 91.058 94.1979 91.4676 93.9704 91.7861C93.6973 92.1502 93.3788 92.2867 92.9692 92.2867C92.6052 92.2867 92.3322 92.1502 92.0591 91.9227C91.8771 91.6951 91.7406 91.3311 91.6951 90.9215Z" fill="#090609"/>
<path d="M94.9261 91.0582L95.4267 91.0127C95.5177 91.5133 95.7452 91.7863 96.1093 91.7863C96.2913 91.7863 96.4278 91.7408 96.5643 91.6043C96.7009 91.5133 96.8374 91.2857 96.9284 91.0127C97.0194 90.7397 97.0649 90.3756 97.0649 90.0116V89.8751C96.9739 90.0571 96.8374 90.2391 96.6554 90.3301C96.4733 90.4666 96.2913 90.5122 96.1093 90.5122C95.7907 90.5122 95.4722 90.3756 95.2447 90.0571C95.0171 89.7385 94.8806 89.3745 94.8806 88.8739C94.8806 88.3734 95.0171 87.9638 95.2447 87.6452C95.4722 87.3267 95.7907 87.1902 96.1548 87.1902C96.4278 87.1902 96.6554 87.2812 96.8374 87.4177C97.0649 87.5997 97.2469 87.8273 97.338 88.1458C97.4745 88.4644 97.52 88.9194 97.52 89.5565C97.52 90.2391 97.4745 90.7852 97.338 91.1492C97.2014 91.5133 97.0194 91.7863 96.8374 91.9683C96.6099 92.1504 96.3823 92.2414 96.1093 92.2414C95.7907 92.2414 95.5632 92.1504 95.3357 91.9228C95.1081 91.7863 94.9716 91.4678 94.9261 91.0582ZM96.9739 88.8739C96.9739 88.5099 96.8829 88.2368 96.7464 88.0548C96.6098 87.8728 96.4278 87.7363 96.2003 87.7363C95.9728 87.7363 95.7907 87.8273 95.6087 88.0548C95.4267 88.2823 95.3357 88.5554 95.3357 88.9194C95.3357 89.238 95.4267 89.511 95.5632 89.693C95.7452 89.8751 95.9273 89.9661 96.1548 89.9661C96.3823 89.9661 96.5643 89.8751 96.7009 89.693C96.8829 89.511 96.9739 89.238 96.9739 88.8739Z" fill="#090609"/>
<path d="M98.0659 87.9181V87.3265H100.705V87.7816C100.296 88.2822 99.9772 88.9648 99.6586 89.7839C99.3401 90.603 99.2036 91.4221 99.1581 92.1957H98.612C98.612 91.7861 98.703 91.2856 98.794 90.7395C98.9305 90.1934 99.0671 89.6474 99.2946 89.1468C99.5221 88.6462 99.7497 88.2367 99.9772 87.8726H98.0659V87.9181Z" fill="#090609"/>
<path d="M101.16 90.9215L101.661 90.876C101.706 91.1946 101.797 91.4221 101.934 91.5586C102.071 91.6951 102.253 91.7861 102.435 91.7861C102.662 91.7861 102.89 91.6951 103.026 91.4676C103.208 91.2401 103.299 90.967 103.299 90.5575C103.299 90.1934 103.208 89.9204 103.072 89.7384C102.89 89.5563 102.708 89.4653 102.435 89.4653C102.298 89.4653 102.162 89.5108 102.025 89.6019C101.888 89.6929 101.797 89.7839 101.706 89.9659L101.251 89.8749L101.661 87.3265H103.663V87.9181H102.025L101.797 89.2378C102.025 89.0103 102.298 88.9193 102.571 88.9193C102.89 88.9193 103.208 89.0558 103.436 89.3743C103.709 89.6474 103.8 90.0569 103.8 90.5575C103.8 91.058 103.663 91.4676 103.436 91.7861C103.163 92.1502 102.844 92.2867 102.435 92.2867C102.071 92.2867 101.797 92.1502 101.524 91.9227C101.342 91.6951 101.206 91.3311 101.16 90.9215Z" fill="#090609"/>
<path d="M106.94 91.6498V92.2414H104.255C104.255 92.0139 104.3 91.7408 104.482 91.4678C104.664 91.1948 104.892 90.8307 105.302 90.4212C105.757 89.9661 106.075 89.602 106.212 89.329C106.348 89.056 106.439 88.8284 106.439 88.6009C106.439 88.3279 106.348 88.1458 106.212 87.9638C106.075 87.8273 105.893 87.7363 105.666 87.7363C105.438 87.7363 105.256 87.8273 105.074 88.0093C104.937 88.1914 104.846 88.4189 104.846 88.7374L104.346 88.6919C104.391 88.2369 104.528 87.8728 104.755 87.5998C104.983 87.3722 105.302 87.2357 105.666 87.2357C106.075 87.2357 106.394 87.3722 106.621 87.6453C106.849 87.9183 106.94 88.2369 106.94 88.6009C106.94 88.9194 106.849 89.238 106.712 89.511C106.53 89.7841 106.212 90.1936 105.757 90.6487C105.438 90.9672 105.256 91.1493 105.165 91.2858C105.074 91.3768 105.028 91.5133 104.937 91.6043H106.94V91.6498Z" fill="#090609"/>
<path d="M110.034 88.4644L109.533 88.5099C109.488 88.2368 109.397 88.0548 109.306 87.9638C109.169 87.8273 109.033 87.7363 108.805 87.7363C108.532 87.7363 108.305 87.9183 108.123 88.2824C107.986 88.6009 107.895 89.056 107.895 89.6475C108.032 89.42 108.168 89.2835 108.305 89.147C108.487 89.056 108.669 88.965 108.851 88.965C109.169 88.965 109.442 89.1015 109.67 89.42C109.897 89.6931 110.034 90.1026 110.034 90.6032C110.034 90.9217 109.988 91.2403 109.852 91.5133C109.715 91.7863 109.579 91.9684 109.397 92.1049C109.215 92.2414 108.987 92.2869 108.76 92.2869C108.35 92.2869 108.032 92.1049 107.759 91.7408C107.486 91.3768 107.349 90.7397 107.349 89.8751C107.349 88.9194 107.486 88.2368 107.759 87.8273C108.032 87.4177 108.396 87.2357 108.805 87.2357C109.124 87.2357 109.351 87.3267 109.579 87.5543C109.897 87.7818 109.988 88.0548 110.034 88.4644ZM108.032 90.6032C108.032 90.9672 108.123 91.2403 108.305 91.4678C108.487 91.6953 108.669 91.7863 108.896 91.7863C109.078 91.7863 109.26 91.6953 109.442 91.4678C109.579 91.2858 109.67 90.9672 109.67 90.6032C109.67 90.2391 109.579 89.9661 109.442 89.7841C109.306 89.602 109.124 89.511 108.896 89.511C108.669 89.511 108.487 89.602 108.35 89.7841C108.123 90.0116 108.032 90.2846 108.032 90.6032Z" fill="#090609"/>
<path d="M133.606 75.6315C128.874 75.6315 125.006 71.7635 125.006 67.0308V9.37436C125.006 4.64171 128.874 0.773682 133.606 0.773682H167.417C172.15 0.773682 176.018 4.64171 176.018 9.37436V67.0308C176.018 71.7635 172.15 75.6315 167.417 75.6315H133.606ZM127.417 67.0308C127.417 70.4438 130.193 73.2197 133.606 73.2197H167.417C170.83 73.2197 173.606 70.4438 173.606 67.0308V47.2811C166.644 51.4222 158.68 53.5609 150.58 53.5609C142.435 53.5609 134.471 51.3766 127.463 47.2356V67.0308H127.417Z" fill="#0488B7"/>
<path d="M167.326 1.36526C171.741 1.36526 175.29 4.96025 175.29 9.32885V66.9853C175.29 71.3994 171.695 74.9489 167.326 74.9489H133.515C129.101 74.9489 125.552 71.3994 125.552 66.9853V9.32885C125.552 4.91475 129.101 1.36526 133.515 1.36526H167.326ZM133.515 73.7657H167.326C171.058 73.7657 174.107 70.7168 174.107 66.9853V46.1889C167.235 50.4665 159.135 52.9694 150.444 52.9694C141.752 52.9694 133.606 50.4665 126.735 46.1889V67.0308C126.735 70.7168 129.784 73.7657 133.515 73.7657ZM167.326 0.136597H133.515C128.464 0.136597 124.323 4.27766 124.323 9.32885V66.9853C124.323 72.0365 128.464 76.1776 133.515 76.1776H167.326C172.378 76.1776 176.519 72.0365 176.519 66.9853V9.32885C176.519 4.27766 172.378 0.136597 167.326 0.136597Z" fill="white"/>
<path d="M150.58 17.4745C149.261 17.4745 148.214 18.5667 148.214 19.8409C148.214 21.1605 149.306 22.2072 150.58 22.2072C151.9 22.2072 152.947 21.115 152.947 19.8409C152.947 18.5212 151.9 17.4745 150.58 17.4745ZM150.58 23.6179C148.487 23.6179 146.803 21.9341 146.803 19.8409C146.803 17.7476 148.487 16.0638 150.58 16.0638C152.674 16.0638 154.357 17.7476 154.357 19.8409C154.357 21.9341 152.674 23.6179 150.58 23.6179Z" fill="white"/>
<path d="M143.618 25.8023C142.253 24.2095 141.388 22.1162 141.388 19.8409C141.388 18.0207 141.934 16.337 142.844 14.9263L141.707 14.0616C140.614 15.7454 139.977 17.7021 139.977 19.8409C139.977 22.5258 140.978 24.9376 142.617 26.8034L143.618 25.8023Z" fill="white"/>
<path d="M142.617 12.8783L143.618 13.8795C143.936 13.5154 144.255 13.1969 144.619 12.8783L143.618 11.8772C143.254 12.1957 142.935 12.5598 142.617 12.8783Z" fill="white"/>
<path d="M150.58 9.28345C148.441 9.28345 146.439 9.92053 144.755 11.0127L145.62 12.1503C147.031 11.2402 148.76 10.6941 150.58 10.6941C152.992 10.6941 155.222 11.6043 156.906 13.197L158.134 12.4234C156.177 10.4211 153.493 9.28345 150.58 9.28345Z" fill="white"/>
<path d="M154.812 23.7544C153.766 24.8921 152.264 25.6202 150.58 25.6202C147.395 25.6202 144.801 23.0263 144.801 19.8409C144.801 16.6554 147.395 14.0616 150.58 14.0616C151.763 14.0616 152.901 14.4256 153.811 15.0627L155.085 14.2891C153.811 13.2425 152.218 12.6964 150.535 12.6964C146.576 12.6964 143.345 15.9274 143.345 19.8864C143.345 23.8454 146.576 27.0764 150.535 27.0764C152.674 27.0764 154.585 26.1208 155.904 24.6646L154.812 23.7544Z" fill="white"/>
<path d="M155.722 27.4859C154.266 28.4871 152.492 29.0331 150.626 29.0331C148.35 29.0331 146.257 28.214 144.664 26.8033L143.663 27.8045C145.529 29.4427 147.986 30.4438 150.626 30.4438C152.856 30.4438 154.903 29.7612 156.587 28.5781L155.722 27.4859Z" fill="white"/>
<path d="M159.454 14.0614L159.09 13.4698L154.994 16.0182L155.404 16.6098C155.449 16.6553 155.449 16.7008 155.495 16.7463C156.087 17.6564 156.405 18.7486 156.405 19.8407C156.405 20.8419 156.132 21.7975 155.677 22.6166L156.815 23.4357C157.452 22.3891 157.816 21.1604 157.816 19.8407C157.816 18.6576 157.543 17.5199 156.951 16.4733L158.68 15.4266C159.408 16.7918 159.818 18.2935 159.818 19.8407C159.818 22.5256 158.68 24.9374 156.86 26.5757L157.725 27.6678C159.864 25.711 161.229 22.9351 161.229 19.7952C161.183 17.7929 160.592 15.7907 159.454 14.0614Z" fill="white"/>
<path d="M142.981 40.5918C142.025 40.5918 141.206 39.8182 141.206 38.8171C141.206 37.8614 141.98 37.0423 142.981 37.0423C143.936 37.0423 144.755 37.8159 144.755 38.8171C144.755 39.8182 143.982 40.5918 142.981 40.5918ZM142.981 35.9047C141.342 35.9047 139.977 37.2243 139.977 38.8626C139.977 40.5008 141.297 41.8205 142.981 41.8205C144.619 41.8205 145.984 40.5008 145.984 38.8626C145.984 37.2243 144.664 35.9047 142.981 35.9047Z" fill="white"/>
<path d="M132.378 35.9044C131.968 35.9044 131.604 35.5859 131.604 35.1308C131.604 34.6757 131.923 34.3572 132.378 34.3572C132.787 34.3572 133.151 34.6757 133.151 35.1308C133.151 35.5859 132.833 35.9044 132.378 35.9044ZM133.015 41.6382H131.786V36.5415H133.015V41.6382Z" fill="white"/>
<path d="M137.156 41.8659C135.518 41.8659 134.152 40.5463 134.152 38.8625C134.152 37.2243 135.518 35.8591 137.156 35.8591C137.975 35.8591 138.703 36.1777 139.249 36.7237L139.295 36.7693L138.475 37.7704L138.384 37.6794C138.066 37.3153 137.565 37.0878 137.065 37.0878C136.109 37.0878 135.336 37.8614 135.336 38.817C135.336 39.7727 136.109 40.5463 137.065 40.5463C137.565 40.5463 138.066 40.3187 138.384 39.9547L138.475 39.8637L139.295 40.8648L139.249 40.9103C138.748 41.5474 137.975 41.8659 137.156 41.8659Z" fill="white"/>
<path d="M167.326 41.8659C165.688 41.8659 164.323 40.5463 164.323 38.8625C164.323 37.2243 165.688 35.8591 167.326 35.8591C168.146 35.8591 168.874 36.1777 169.42 36.7237L169.465 36.7693L168.646 37.7704L168.555 37.6794C168.237 37.3153 167.736 37.0878 167.235 37.0878C166.28 37.0878 165.506 37.8614 165.506 38.817C165.506 39.7727 166.28 40.5463 167.235 40.5463C167.736 40.5463 168.237 40.3187 168.555 39.9547L168.646 39.8637L169.465 40.8648L169.42 40.9103C168.874 41.5474 168.146 41.8659 167.326 41.8659Z" fill="white"/>
<path d="M149.989 35.8591C148.35 35.8591 146.985 37.1788 146.985 38.817V41.5929V41.6839H147.076H148.214H148.305V41.5929V38.726C148.305 37.8159 149.033 37.0423 149.989 37.0423C150.899 37.0423 151.627 37.7704 151.672 38.6805V38.726V41.5929V41.6839H151.763H152.901H152.992V41.5929V38.817C152.946 37.1788 151.627 35.8591 149.989 35.8591Z" fill="white"/>
<path d="M159.181 38.2253C159.272 37.4517 159.909 36.9511 160.637 36.9511C161.411 36.9511 162.002 37.4517 162.048 38.2253H159.181ZM160.637 35.8135C159.863 35.8135 159.181 36.132 158.635 36.6781C158.134 37.2242 157.816 37.9978 157.816 38.8624C157.816 40.6371 159.044 41.8658 160.774 41.8658C162.366 41.8658 163.049 40.8192 163.185 40.5916L163.231 40.5461L163.185 40.5006L162.412 39.909L162.321 39.8635L162.275 39.9545C162.139 40.1821 161.684 40.6827 160.819 40.6827C159.863 40.6827 159.181 40.0911 159.09 39.2264H163.276H163.367V39.1354C163.367 39.0444 163.367 38.9534 163.367 38.8169C163.367 37.9068 163.094 37.1787 162.639 36.6326C162.184 36.132 161.456 35.8135 160.637 35.8135Z" fill="white"/>
<path d="M156.951 40.6826H156.905C156.86 40.6826 156.769 40.6826 156.678 40.6826C156.132 40.6826 155.904 40.5461 155.904 39.7724V36.86H156.951H157.042V36.769V35.9499V35.8589H156.951H155.904V34.9033V34.8123H155.813H154.676H154.585V34.9033V35.9499H153.902H153.811V36.0409V36.86V36.9511H153.902H154.585V39.6814C154.585 40.091 154.63 40.6371 154.858 41.0921C155.131 41.5927 155.631 41.8657 156.314 41.8657C156.632 41.8657 156.814 41.8202 156.86 41.8202H156.905H156.951V40.6826Z" fill="white"/>
<path d="M129.238 89.8294C129.238 88.9648 129.42 88.3277 129.784 87.8727C130.148 87.4176 130.603 87.1901 131.149 87.1901C131.513 87.1901 131.832 87.2811 132.15 87.5086C132.423 87.6906 132.696 88.0092 132.833 88.3732C133.015 88.7373 133.106 89.2378 133.106 89.7384C133.106 90.4665 132.924 91.0581 132.605 91.5132C132.241 92.0137 131.741 92.2868 131.149 92.2868C130.557 92.2868 130.057 92.0137 129.693 91.5132C129.42 91.0581 129.238 90.4665 129.238 89.8294ZM129.784 89.8294C129.784 90.421 129.92 90.9216 130.193 91.2401C130.466 91.5587 130.785 91.7407 131.195 91.7407C131.604 91.7407 131.923 91.5587 132.196 91.2401C132.469 90.9216 132.605 90.421 132.605 89.7384C132.605 89.3289 132.514 88.9193 132.378 88.6008C132.287 88.3277 132.105 88.1457 131.923 87.9637C131.695 87.8272 131.468 87.7361 131.24 87.7361C130.831 87.7361 130.512 87.9182 130.239 88.2367C129.92 88.6008 129.784 89.1013 129.784 89.8294Z" fill="#090609"/>
<path d="M133.652 90.6487L134.152 90.6032C134.198 90.8762 134.243 91.1037 134.334 91.2403C134.425 91.3768 134.562 91.5133 134.744 91.6043C134.926 91.6953 135.108 91.7408 135.336 91.7408C135.654 91.7408 135.882 91.6498 136.064 91.5133C136.246 91.3768 136.337 91.1493 136.337 90.9217C136.337 90.7852 136.291 90.6487 136.246 90.5577C136.2 90.4667 136.064 90.3757 135.973 90.2846C135.836 90.1936 135.563 90.1026 135.154 90.0116C134.79 89.9206 134.516 89.7841 134.334 89.6475C134.152 89.511 134.061 89.3745 133.97 89.1925C133.879 89.0105 133.834 88.8284 133.834 88.6009C133.834 88.1913 133.97 87.8728 134.243 87.5998C134.516 87.3267 134.835 87.2357 135.29 87.2357C135.609 87.2357 135.836 87.2812 136.064 87.4177C136.291 87.5543 136.473 87.6908 136.61 87.9183C136.746 88.1458 136.792 88.4189 136.792 88.6919L136.291 88.7374C136.246 88.4189 136.155 88.1914 136.018 88.0093C135.836 87.8728 135.609 87.7818 135.336 87.7818C135.017 87.7818 134.79 87.8273 134.653 87.9638C134.471 88.1003 134.425 88.2824 134.425 88.5099C134.425 88.6919 134.471 88.8739 134.607 88.965C134.744 89.056 134.972 89.1925 135.381 89.2835C135.791 89.3745 136.064 89.511 136.246 89.5565C136.473 89.6931 136.701 89.8296 136.792 90.0571C136.928 90.2846 136.974 90.5122 136.974 90.7852C136.974 91.0582 136.928 91.3313 136.792 91.5588C136.655 91.7863 136.473 91.9684 136.246 92.1049C136.018 92.2414 135.745 92.2869 135.427 92.2869C134.926 92.2869 134.516 92.1504 134.243 91.8319C133.788 91.5588 133.652 91.1493 133.652 90.6487Z" fill="#090609"/>
<path d="M137.338 90.7397V90.1481H138.885V90.7397H137.338Z" fill="#090609"/>
<path d="M142.344 90.4666L142.89 90.6487C142.753 91.1947 142.571 91.6043 142.253 91.8773C141.934 92.1504 141.57 92.2869 141.16 92.2869C140.796 92.2869 140.478 92.1959 140.205 92.0139C139.932 91.8318 139.704 91.5588 139.568 91.1492C139.386 90.7397 139.295 90.2846 139.295 89.693C139.295 89.147 139.386 88.6919 139.568 88.3278C139.75 87.9638 139.977 87.6453 140.25 87.4632C140.523 87.2812 140.887 87.1902 141.206 87.1902C141.616 87.1902 141.934 87.3267 142.207 87.5542C142.48 87.7818 142.708 88.1458 142.799 88.6464L142.253 88.7829C142.071 88.1003 141.707 87.7363 141.16 87.7363C140.887 87.7363 140.66 87.8273 140.478 87.9638C140.296 88.1003 140.114 88.3278 140.023 88.6009C139.886 88.8739 139.841 89.2835 139.841 89.693C139.841 90.3756 139.977 90.8762 140.205 91.2402C140.432 91.5588 140.751 91.7408 141.16 91.7408C141.433 91.7408 141.707 91.6498 141.934 91.4223C142.162 91.2403 142.298 90.9217 142.344 90.4666Z" fill="#090609"/>
<path d="M143.572 92.2414V87.2812H146.485V87.8728H144.118V89.3745H146.348V89.9661H144.118V91.6499H146.621V92.2414H143.572Z" fill="#090609"/>
<path d="M147.349 92.2414V87.2812H149.17C149.534 87.2812 149.807 87.3268 149.989 87.4178C150.171 87.5088 150.307 87.6453 150.444 87.8728C150.58 88.1004 150.626 88.3279 150.626 88.6009C150.626 88.965 150.535 89.2835 150.353 89.5111C150.171 89.7386 149.898 89.8751 149.488 89.9661C149.625 90.0571 149.761 90.1481 149.852 90.2392C150.034 90.4212 150.171 90.6487 150.262 90.8762L150.99 92.2414H150.307L149.761 91.1948C149.534 90.7852 149.397 90.5122 149.306 90.3757C149.215 90.2392 149.079 90.1481 148.988 90.1026C148.897 90.0571 148.76 90.0116 148.578 90.0116H147.941V92.1959H147.349V92.2414ZM147.895 89.4655H149.033C149.306 89.4655 149.488 89.42 149.625 89.3745C149.761 89.329 149.852 89.238 149.943 89.1015C150.034 88.965 150.08 88.8285 150.08 88.6464C150.08 88.4189 149.989 88.1914 149.852 88.0548C149.716 87.9183 149.488 87.8273 149.215 87.8273H147.941V89.4655H147.895Z" fill="#090609"/>
<path d="M152.81 90.9215L153.311 90.876C153.356 91.1946 153.447 91.4221 153.584 91.5586C153.72 91.6951 153.902 91.7861 154.084 91.7861C154.312 91.7861 154.539 91.6951 154.676 91.4676C154.858 91.2401 154.949 90.967 154.949 90.5575C154.949 90.1934 154.858 89.9204 154.721 89.7384C154.539 89.5563 154.357 89.4653 154.084 89.4653C153.948 89.4653 153.811 89.5108 153.675 89.6019C153.538 89.6929 153.447 89.7839 153.356 89.9659L152.901 89.8749L153.311 87.3265H155.313V87.9181H153.675L153.447 89.2378C153.675 89.0103 153.948 88.9193 154.221 88.9193C154.539 88.9193 154.858 89.0558 155.085 89.3743C155.358 89.6474 155.449 90.0569 155.449 90.5575C155.449 91.058 155.313 91.4676 155.085 91.7861C154.812 92.1502 154.494 92.2867 154.084 92.2867C153.72 92.2867 153.447 92.1502 153.174 91.9227C152.992 91.6951 152.856 91.3766 152.81 90.9215Z" fill="#090609"/>
<path d="M156.041 91.0582L156.541 91.0127C156.632 91.5133 156.86 91.7863 157.224 91.7863C157.406 91.7863 157.543 91.7408 157.679 91.6043C157.816 91.5133 157.952 91.2857 158.043 91.0127C158.134 90.7397 158.18 90.3756 158.18 90.0116V89.8751C158.089 90.0571 157.952 90.2391 157.77 90.3301C157.588 90.4666 157.406 90.5122 157.224 90.5122C156.905 90.5122 156.587 90.3756 156.359 90.0571C156.132 89.7841 155.995 89.3745 155.995 88.8739C155.995 88.3734 156.132 87.9638 156.359 87.6452C156.587 87.3267 156.905 87.1902 157.27 87.1902C157.543 87.1902 157.77 87.2812 157.952 87.4177C158.18 87.5997 158.362 87.8273 158.453 88.1458C158.589 88.4644 158.635 88.9194 158.635 89.5565C158.635 90.2391 158.589 90.7852 158.453 91.1492C158.316 91.5133 158.134 91.7863 157.952 91.9683C157.725 92.1504 157.497 92.2414 157.224 92.2414C156.905 92.2414 156.678 92.1504 156.45 91.9228C156.177 91.7863 156.086 91.4678 156.041 91.0582ZM158.089 88.8739C158.089 88.5099 157.998 88.2368 157.861 88.0548C157.725 87.8728 157.543 87.7363 157.315 87.7363C157.088 87.7363 156.905 87.8273 156.723 88.0548C156.541 88.2823 156.45 88.5554 156.45 88.9194C156.45 89.238 156.541 89.511 156.678 89.693C156.86 89.8751 157.042 89.9661 157.27 89.9661C157.497 89.9661 157.679 89.8751 157.816 89.693C157.998 89.511 158.089 89.238 158.089 88.8739Z" fill="#090609"/>
<path d="M159.135 87.9181V87.3265H161.775V87.7816C161.365 88.2822 161.047 88.9648 160.728 89.7839C160.409 90.603 160.273 91.4221 160.227 92.1957H159.727C159.727 91.7861 159.818 91.2856 159.909 90.7395C160.045 90.1934 160.182 89.6474 160.409 89.1468C160.637 88.6462 160.864 88.2367 161.092 87.8726H159.135V87.9181Z" fill="#090609"/>
<path d="M162.275 90.9215L162.776 90.876C162.821 91.1946 162.912 91.4221 163.049 91.5586C163.186 91.6951 163.368 91.7861 163.55 91.7861C163.777 91.7861 164.005 91.6951 164.141 91.4676C164.323 91.2401 164.414 90.967 164.414 90.5575C164.414 90.1934 164.323 89.9204 164.187 89.7384C164.005 89.5563 163.823 89.4653 163.55 89.4653C163.413 89.4653 163.277 89.5108 163.14 89.6019C163.003 89.6929 162.912 89.7839 162.821 89.9659L162.366 89.8749L162.776 87.3265H164.778V87.9181H163.14L162.912 89.2378C163.14 89.0103 163.413 88.9193 163.686 88.9193C164.005 88.9193 164.323 89.0558 164.551 89.3743C164.824 89.6474 164.915 90.0569 164.915 90.5575C164.915 91.058 164.778 91.4676 164.551 91.7861C164.278 92.1502 163.959 92.2867 163.55 92.2867C163.186 92.2867 162.912 92.1502 162.639 91.9227C162.412 91.6951 162.275 91.3766 162.275 90.9215Z" fill="#090609"/>
<path d="M165.415 90.9215L165.916 90.876C165.961 91.1946 166.052 91.4221 166.189 91.5586C166.325 91.6951 166.507 91.7861 166.689 91.7861C166.917 91.7861 167.145 91.6951 167.281 91.4676C167.463 91.2401 167.554 90.967 167.554 90.5575C167.554 90.1934 167.463 89.9204 167.327 89.7384C167.145 89.5563 166.963 89.4653 166.689 89.4653C166.553 89.4653 166.416 89.5108 166.28 89.6019C166.143 89.6929 166.052 89.7839 165.961 89.9659L165.506 89.8749L165.916 87.3265H167.918V87.9181H166.28L166.052 89.2378C166.28 89.0103 166.553 88.9193 166.826 88.9193C167.145 88.9193 167.463 89.0558 167.691 89.3743C167.964 89.6474 168.055 90.0569 168.055 90.5575C168.055 91.058 167.918 91.4676 167.691 91.7861C167.418 92.1502 167.099 92.2867 166.689 92.2867C166.325 92.2867 166.052 92.1502 165.779 91.9227C165.597 91.6951 165.461 91.3766 165.415 90.9215Z" fill="#090609"/>
<path d="M168.555 90.9215L169.056 90.876C169.101 91.1946 169.192 91.4221 169.329 91.5586C169.465 91.6951 169.647 91.7861 169.829 91.7861C170.057 91.7861 170.284 91.6951 170.421 91.4676C170.603 91.2401 170.694 90.967 170.694 90.5575C170.694 90.1934 170.603 89.9204 170.466 89.7384C170.284 89.5563 170.102 89.4653 169.829 89.4653C169.693 89.4653 169.556 89.5108 169.42 89.6019C169.283 89.6929 169.192 89.7839 169.101 89.9659L168.646 89.8749L169.056 87.3265H171.058V87.9181H169.42L169.192 89.2378C169.42 89.0103 169.693 88.9193 169.966 88.9193C170.284 88.9193 170.603 89.0558 170.83 89.3743C171.104 89.6474 171.195 90.0569 171.195 90.5575C171.195 91.058 171.058 91.4676 170.83 91.7861C170.557 92.1502 170.239 92.2867 169.829 92.2867C169.465 92.2867 169.192 92.1502 168.919 91.9227C168.737 91.6951 168.601 91.3766 168.555 90.9215Z" fill="#090609"/>
<path fill-rule="evenodd" clip-rule="evenodd" d="M213.879 11.8771C231.263 11.7406 240 28.0773 239.727 35.9954C239.727 36.1319 239.954 36.2684 239.909 36.2684H231.854C231.49 26.7576 222.161 19.3401 214.016 19.5221C203.413 19.7497 196.268 27.7133 195.267 36.2684H187.486C187.44 36.2684 187.349 36.1319 187.395 35.9954C189.215 24.2093 197.088 11.9681 213.879 11.8771Z" fill="#08356C"/>
<path fill-rule="evenodd" clip-rule="evenodd" d="M231.035 27.3947L231.354 28.0318C231.445 28.2138 231.536 28.3958 231.672 28.4868C231.763 28.5779 231.854 28.6234 231.991 28.6689C232.127 28.7144 232.309 28.7144 232.491 28.7144C232.673 28.6689 232.901 28.6234 233.128 28.4868C233.447 28.3048 233.674 28.1683 233.765 27.9408C233.902 27.7588 233.947 27.5767 233.902 27.3947C233.902 27.2582 233.811 27.0761 233.72 26.8486L233.401 26.2115L231.035 27.3947ZM230.444 27.2127L233.492 25.6655L234.038 26.7121C234.175 26.9396 234.221 27.1217 234.266 27.2582C234.312 27.4402 234.312 27.6222 234.266 27.8043C234.221 28.0318 234.084 28.2593 233.948 28.4413C233.765 28.6234 233.538 28.8054 233.265 28.9419C233.037 29.0784 232.81 29.1239 232.628 29.1694C232.4 29.2149 232.218 29.2149 232.082 29.1694C231.9 29.1239 231.763 29.0784 231.672 29.0329C231.536 28.9874 231.445 28.8509 231.354 28.7599C231.263 28.6234 231.126 28.4868 231.035 28.3048L230.444 27.2127ZM226.849 22.7076L229.215 20.2502L230.99 21.9795L230.717 22.2525L229.26 20.8418L228.532 21.6154L229.897 22.9351L229.624 23.2081L228.259 21.8884L227.44 22.7076L228.942 24.1638L228.669 24.4368L226.849 22.7076ZM223.618 20.4322L225.347 17.4743L225.756 17.7019L224.027 20.6598L223.618 20.4322ZM218.43 18.2934L219.431 15.017L221.615 15.6996L221.479 16.0636L219.704 15.5176L219.385 16.5187L220.933 16.9738L220.796 17.3378L219.249 16.8828L218.794 18.3845L218.43 18.2934ZM214.516 17.8384L214.744 14.4254L215.199 14.4709L214.971 17.8839L214.516 17.8384ZM209.784 18.2024L209.329 15.2445L208.236 15.4266L208.191 15.017L210.876 14.6074L210.921 15.017L209.784 15.199L210.239 18.1569L209.784 18.2024ZM202.912 18.7485L203.777 18.2934C203.959 18.2024 204.095 18.1114 204.186 18.0204C204.277 17.9294 204.323 17.8384 204.323 17.7019C204.323 17.6109 204.323 17.4743 204.277 17.3833C204.186 17.2468 204.095 17.1558 203.913 17.1103C203.777 17.0648 203.595 17.1103 203.367 17.2468L202.412 17.7474L202.912 18.7485ZM203.413 20.6143L201.82 17.6109L203.14 16.8828C203.413 16.7462 203.64 16.6552 203.777 16.6552C203.959 16.6552 204.095 16.6552 204.277 16.7462C204.414 16.8372 204.55 16.9738 204.641 17.1558C204.778 17.3833 204.778 17.5653 204.732 17.7929C204.687 18.0204 204.505 18.2024 204.232 18.43C204.368 18.43 204.459 18.43 204.55 18.43C204.732 18.4755 204.914 18.5665 205.097 18.6575L206.052 19.2036L205.552 19.4766L204.823 19.0671C204.596 18.9305 204.459 18.8395 204.323 18.794C204.186 18.7485 204.095 18.703 204.004 18.703C203.913 18.703 203.868 18.703 203.777 18.703C203.731 18.703 203.64 18.7485 203.549 18.794L203.094 19.0216L203.822 20.3412L203.413 20.6143ZM198.953 24.3458L196.587 21.8884L198.362 20.1592L198.635 20.4322L197.178 21.8429L197.907 22.6165L199.272 21.2969L199.545 21.5699L198.18 22.8896L198.999 23.7087L200.5 22.2525L200.773 22.5255L198.953 24.3458ZM195.859 26.8941L196.177 26.5301C196.45 26.8031 196.632 27.0762 196.723 27.3492C196.769 27.6677 196.723 27.9863 196.587 28.3048C196.405 28.6234 196.223 28.8509 195.995 28.9874C195.768 29.1239 195.495 29.1694 195.176 29.1694C194.858 29.1694 194.585 29.0784 194.266 28.8964C193.947 28.7144 193.72 28.5324 193.538 28.3048C193.356 28.0773 193.265 27.8042 193.265 27.5312C193.265 27.2582 193.31 26.9851 193.447 26.7121C193.583 26.3936 193.811 26.2115 194.084 26.075C194.357 25.9385 194.63 25.893 194.949 25.984L194.858 26.4391C194.585 26.3936 194.403 26.4391 194.221 26.4846C194.039 26.5756 193.902 26.7121 193.811 26.8941C193.674 27.1217 193.629 27.3492 193.674 27.5767C193.72 27.8043 193.811 27.9863 193.947 28.1228C194.084 28.3048 194.266 28.3958 194.494 28.5324C194.767 28.6689 194.994 28.7599 195.222 28.7599C195.449 28.7599 195.677 28.7599 195.813 28.6234C195.995 28.5324 196.132 28.3503 196.223 28.1683C196.359 27.9408 196.359 27.7132 196.314 27.4857C196.223 27.2582 196.086 27.0762 195.859 26.8941Z" fill="white"/>
<path fill-rule="evenodd" clip-rule="evenodd" d="M213.333 64.2092C195.95 64.3457 187.213 48.009 187.486 40.0909C187.486 39.9544 187.258 39.8179 187.304 39.8179H195.358C195.722 49.3287 205.051 56.7462 213.197 56.5642C223.8 56.3367 230.944 48.373 231.945 39.8179H239.727C239.772 39.8179 239.863 39.9544 239.818 40.0909C238.043 51.8315 230.125 64.0727 213.333 64.2092Z" fill="#08356C"/>
<path d="M195.267 37.5426H187.349V38.6803H195.267V37.5426Z" fill="#808080"/>
<path d="M240 37.5426H232.082V38.6803H240V37.5426Z" fill="#808080"/>
<path fill-rule="evenodd" clip-rule="evenodd" d="M234.266 49.4653L231.035 48.2821L231.263 47.6451L233.811 47.6906C234.038 47.6906 234.221 47.6906 234.357 47.6906C234.266 47.5996 234.084 47.5085 233.902 47.3265L231.945 45.7338L232.173 45.1422L235.404 46.3254L235.267 46.7349L232.582 45.7793L234.949 47.6906L234.812 48.0546L231.763 48.0091L234.494 49.0102L234.266 49.4653ZM232.764 52.2412L229.761 50.603L230.944 48.4642L231.308 48.6462L230.307 50.4209L231.217 50.9215L232.127 49.2833L232.491 49.4653L231.581 51.1035L232.582 51.6496L233.583 49.8294L233.947 50.0114L232.764 52.2412ZM231.445 54.0614L229.033 52.2412L228.35 53.1513L228.032 52.9238L229.67 50.785L229.988 51.0125L229.306 51.9226L231.718 53.7429L231.445 54.0614ZM227.759 56.3368L228.032 56.0182C228.168 56.1092 228.305 56.2002 228.441 56.2002C228.578 56.2457 228.714 56.2002 228.851 56.1547C228.987 56.1092 229.169 55.9727 229.306 55.8362C229.442 55.6997 229.533 55.6087 229.579 55.4721C229.624 55.3356 229.67 55.2446 229.624 55.1081C229.624 55.0171 229.579 54.9261 229.488 54.835C229.397 54.744 229.306 54.6985 229.215 54.6985C229.124 54.6985 228.987 54.6985 228.851 54.7895C228.76 54.8351 228.578 54.9261 228.305 55.1081C228.032 55.2901 227.804 55.3811 227.668 55.4266C227.486 55.4721 227.349 55.4721 227.167 55.4721C227.031 55.4266 226.894 55.3811 226.803 55.2446C226.666 55.1081 226.621 54.9716 226.575 54.7895C226.53 54.6075 226.575 54.4255 226.621 54.2435C226.712 54.0614 226.803 53.8794 226.985 53.6974C227.167 53.5154 227.349 53.3788 227.531 53.2878C227.713 53.1968 227.895 53.1968 228.077 53.2423C228.259 53.2878 228.441 53.3788 228.578 53.5154L228.305 53.8339C228.123 53.6974 227.986 53.6519 227.804 53.6519C227.622 53.6519 227.44 53.7884 227.258 53.9704C227.076 54.1524 226.94 54.3345 226.94 54.5165C226.94 54.653 226.985 54.7895 227.076 54.9261C227.167 55.0171 227.258 55.0626 227.395 55.0626C227.531 55.0626 227.713 54.9716 228.032 54.744C228.35 54.562 228.578 54.4255 228.714 54.38C228.942 54.289 229.124 54.289 229.26 54.3345C229.442 54.38 229.579 54.471 229.715 54.562C229.852 54.6985 229.943 54.8351 229.988 55.0171C230.034 55.1991 230.034 55.3811 229.943 55.6087C229.852 55.7907 229.761 56.0182 229.579 56.1547C229.351 56.3823 229.124 56.5188 228.942 56.6098C228.714 56.7008 228.532 56.7008 228.305 56.6553C228.077 56.5643 227.895 56.4733 227.759 56.3368ZM226.803 58.2935L225.938 57.1559L223.709 56.3823L224.164 56.0637L225.301 56.4733C225.529 56.5643 225.711 56.6553 225.938 56.7463C225.893 56.5643 225.893 56.2912 225.893 56.0182L225.802 54.835L226.211 54.5165L226.302 56.9283L227.167 58.066L226.803 58.2935ZM222.571 59.4767L222.935 59.2492C223.026 59.3857 223.117 59.4767 223.254 59.5677C223.39 59.6132 223.527 59.6587 223.663 59.6587C223.845 59.6587 223.982 59.6132 224.164 59.5222C224.3 59.4312 224.437 59.3402 224.528 59.2492C224.619 59.1581 224.664 59.0216 224.71 58.9306C224.71 58.8396 224.71 58.7031 224.664 58.6121C224.619 58.5211 224.528 58.43 224.437 58.43C224.346 58.3845 224.209 58.3845 224.073 58.3845C223.982 58.3845 223.754 58.43 223.436 58.5211C223.117 58.6121 222.889 58.6576 222.753 58.6576C222.571 58.6576 222.389 58.6121 222.298 58.5666C222.161 58.4755 222.07 58.3845 221.979 58.248C221.888 58.1115 221.888 57.9295 221.888 57.7475C221.888 57.5654 221.979 57.3834 222.116 57.2469C222.252 57.1104 222.389 56.9738 222.616 56.8373C222.844 56.7008 223.071 56.6553 223.254 56.6098C223.481 56.6098 223.663 56.6098 223.8 56.7008C223.982 56.7918 224.118 56.9283 224.209 57.1104L223.845 57.3379C223.709 57.1559 223.572 57.0649 223.39 57.0193C223.208 56.9738 223.026 57.0193 222.798 57.1559C222.571 57.2924 222.389 57.4289 222.343 57.5654C222.298 57.7019 222.298 57.8385 222.343 57.975C222.389 58.066 222.48 58.157 222.616 58.2025C222.753 58.248 222.98 58.2025 223.345 58.1115C223.709 58.0205 223.982 57.975 224.118 57.9295C224.346 57.9295 224.528 57.9295 224.664 58.0205C224.801 58.1115 224.937 58.2025 225.028 58.3845C225.119 58.5666 225.165 58.7031 225.119 58.9306C225.119 59.1126 225.028 59.2947 224.892 59.4767C224.755 59.6587 224.573 59.7952 224.391 59.8862C224.118 60.0228 223.891 60.1138 223.663 60.1138C223.436 60.1138 223.208 60.0683 223.026 59.9773C222.844 59.7952 222.707 59.6587 222.571 59.4767ZM216.928 62.1616L216.473 59.2036L215.381 59.3857L215.335 58.9761L218.02 58.5666L218.066 58.9761L216.928 59.1581L217.383 62.116L216.928 62.1616ZM212.651 62.4346L212.514 59.0216H212.969L214.835 61.661L214.744 58.9761H215.199L215.335 62.3891H214.88L213.015 59.7497L213.106 62.4346H212.651ZM209.465 62.0705L209.875 58.7031L212.332 59.0216L212.286 59.4312L210.284 59.2036L210.148 60.2503L212.013 60.4778L211.968 60.8874L210.102 60.6599L209.966 61.7975L212.059 62.0705L212.013 62.4801L209.465 62.0705ZM205.597 61.0694L206.462 57.7475L207.099 57.9295L207.235 60.4778C207.235 60.7054 207.281 60.8874 207.281 61.0239C207.372 60.9329 207.463 60.7509 207.599 60.5233L209.01 58.43L209.602 58.5666L208.737 61.843L208.327 61.752L209.056 58.9761L207.372 61.479L206.962 61.388L206.78 58.339L206.007 61.1604L205.597 61.0694ZM202.503 59.6587L204.004 56.6098L206.234 57.7019L206.052 58.066L204.232 57.2014L203.777 58.157L205.461 58.9761L205.279 59.3402L203.595 58.5211L203.094 59.5677L204.96 60.4778L204.778 60.8419L202.503 59.6587ZM201.456 57.4289L201.684 57.1104L202.867 57.9295L202.139 58.9761C201.866 58.9761 201.593 58.9761 201.365 58.9306C201.137 58.8851 200.91 58.7941 200.682 58.6576C200.409 58.4756 200.182 58.248 200.045 57.975C199.909 57.7019 199.863 57.4289 199.863 57.1104C199.909 56.7918 200 56.5188 200.182 56.2457C200.364 55.9727 200.591 55.7452 200.864 55.6087C201.137 55.4266 201.411 55.3811 201.729 55.4266C202.002 55.4721 202.321 55.5631 202.594 55.7452C202.776 55.8817 202.958 56.0637 203.094 56.2002C203.231 56.3823 203.276 56.5643 203.276 56.7463C203.276 56.9283 203.276 57.1104 203.185 57.3379L202.776 57.2014C202.821 57.0193 202.867 56.8828 202.867 56.7463C202.867 56.6098 202.821 56.4733 202.73 56.3823C202.639 56.2457 202.548 56.1547 202.412 56.0637C202.23 55.9272 202.093 55.8817 201.911 55.8362C201.729 55.7907 201.593 55.7907 201.456 55.8362C201.319 55.8817 201.183 55.9272 201.092 56.0182C200.91 56.1547 200.728 56.2912 200.591 56.5188C200.409 56.7918 200.318 57.0193 200.273 57.2469C200.227 57.4744 200.273 57.7019 200.409 57.884C200.5 58.066 200.682 58.248 200.864 58.3845C201.046 58.4755 201.228 58.5666 201.411 58.6121C201.593 58.6576 201.775 58.6576 201.911 58.6576L202.275 58.1115L201.456 57.4289ZM198.362 54.8805L199.226 55.6542L199.59 54.6985C199.681 54.4255 199.818 54.198 199.863 54.0159C199.681 54.1525 199.499 54.289 199.272 54.38L198.362 54.8805ZM196.723 55.2901L200 53.6519L200.364 53.9704L199.135 57.4289L198.771 57.0649L199.181 56.0182L198.134 55.0626L197.178 55.5631L196.723 55.2901ZM194.812 52.8328L197.497 50.7395L197.77 51.1035L196.769 54.1524L198.862 52.5142L199.135 52.8328L196.45 54.9261L196.177 54.562L197.178 51.5131L195.085 53.1513L194.812 52.8328ZM194.767 49.9204L195.313 50.9215L195.95 50.1479C196.132 49.9204 196.314 49.7383 196.45 49.6018C196.223 49.6928 195.995 49.7383 195.768 49.7383L194.767 49.9204ZM193.037 49.7383L196.678 49.2378L196.905 49.6473L194.585 52.5142L194.357 52.0592L195.085 51.1945L194.403 49.9659L193.31 50.1479L193.037 49.7383ZM191.763 46.3709L194.994 45.1877L195.222 45.8248L193.219 47.4175C193.037 47.554 192.901 47.6906 192.81 47.7361C192.946 47.7361 193.128 47.7361 193.401 47.7361L195.904 47.6906L196.132 48.2821L192.901 49.4653L192.764 49.0558L195.449 48.1001L192.446 48.1456L192.309 47.7816L194.721 45.8703L191.991 46.8714L191.763 46.3709Z" fill="white"/>
<path d="M230.08 32.1729H197.133V33.3105H230.08V32.1729Z" fill="#08356C"/>
<path d="M230.034 43.959H197.178V44.8236H230.034V43.959Z" fill="#808080"/>
<path d="M201.001 34.9033H199.363V41.9568H201.001V34.9033Z" fill="#808080"/>
<path fill-rule="evenodd" clip-rule="evenodd" d="M210.694 34.9033H212.241L215.972 39.0444V34.9033H217.656V41.9568H216.2C216.063 41.7748 215.79 41.5017 215.472 41.1377C215.153 40.7736 214.789 40.3641 214.471 40C214.152 39.636 213.697 39.1354 213.197 38.5438C212.696 37.9522 212.423 37.6792 212.377 37.6337V41.9568H210.648V34.9033H210.694Z" fill="#808080"/>
<path fill-rule="evenodd" clip-rule="evenodd" d="M226.03 34.8577H226.257V36.5414H228.123V37.6791H226.257V39.5448C226.257 39.7724 226.257 39.9999 226.303 40.1819C226.348 40.3639 226.394 40.5004 226.53 40.5915C226.667 40.6825 226.803 40.7735 227.076 40.7735C227.258 40.7735 227.395 40.7735 227.486 40.728C227.622 40.6825 227.804 40.5915 228.123 40.4549V41.6836C227.941 41.7291 227.759 41.8201 227.622 41.8656C227.486 41.9111 227.349 41.9566 227.167 41.9566C227.031 42.0022 226.849 42.0022 226.621 42.0022C225.938 42.0022 225.483 41.8201 225.119 41.4561C224.801 41.092 224.619 40.5915 224.619 39.9089V37.7246H223.845V37.406L226.03 34.8577Z" fill="#808080"/>
<path fill-rule="evenodd" clip-rule="evenodd" d="M221.16 37.406C220.842 37.406 220.569 37.497 220.387 37.7246C220.159 37.9521 220.068 38.2251 220.023 38.5437H222.344C222.298 38.2251 222.207 37.9521 221.979 37.7246C221.752 37.497 221.479 37.406 221.16 37.406ZM221.069 36.3594C221.615 36.3594 222.07 36.4504 222.435 36.6324C222.799 36.8144 223.072 37.0875 223.299 37.3605C223.527 37.679 223.663 37.9976 223.754 38.3616C223.845 38.7257 223.891 39.0442 223.891 39.4083H220.068C220.114 39.9089 220.296 40.2729 220.569 40.5004C220.887 40.728 221.297 40.8645 221.797 40.8645C222.48 40.8645 223.117 40.637 223.754 40.1364V41.2285C223.117 41.6836 222.253 41.9566 221.251 41.9566C220.66 41.9566 220.159 41.8656 219.704 41.5926C219.249 41.3651 218.885 41.0465 218.658 40.637C218.43 40.2274 218.293 39.7268 218.293 39.1808C218.293 38.6347 218.43 38.1341 218.658 37.7246C218.885 37.315 219.249 36.951 219.659 36.7234C220.068 36.4959 220.523 36.3594 221.069 36.3594Z" fill="#808080"/>
<path fill-rule="evenodd" clip-rule="evenodd" d="M209.01 37.6337L209.192 38.2252H209.738L209.329 38.5438L209.465 39.0444L209.01 38.7258L208.51 39.0444L208.692 38.5438L208.282 38.2252H208.828L209.01 37.6337Z" fill="#08356C"/>
<path fill-rule="evenodd" clip-rule="evenodd" d="M208.646 39.2263L208.828 39.7724H209.374L208.965 40.0909L209.101 40.5915L208.646 40.273L208.146 40.5915L208.328 40.0909L207.918 39.7724H208.464L208.646 39.2263Z" fill="#08356C"/>
<path fill-rule="evenodd" clip-rule="evenodd" d="M207.417 40.4093L207.645 40.9554H208.145L207.736 41.2739L207.918 41.7745L207.417 41.5014L206.962 41.7745L207.099 41.2739L206.689 40.9554H207.235L207.417 40.4093Z" fill="#08356C"/>
<path fill-rule="evenodd" clip-rule="evenodd" d="M206.371 38.9532L206.553 39.4993H207.099L206.644 39.8179L206.826 40.3184L206.371 40.0454L205.87 40.3184L206.052 39.8179L205.643 39.4993H206.143L206.371 38.9532Z" fill="#08356C"/>
<path fill-rule="evenodd" clip-rule="evenodd" d="M208.419 41.7292L208.601 42.2753H209.147L208.692 42.6394L208.874 43.1399L208.419 42.8214L207.918 43.1399L208.1 42.6394L207.645 42.2753H208.191L208.419 41.7292Z" fill="#08356C"/>
<path fill-rule="evenodd" clip-rule="evenodd" d="M205.688 40.9556L205.916 41.5472H206.462L206.007 41.8202L206.189 42.3663L205.688 42.0477L205.233 42.3663L205.415 41.8202L204.96 41.5472H205.506L205.688 40.9556Z" fill="#08356C"/>
<path fill-rule="evenodd" clip-rule="evenodd" d="M204.141 40.4093L204.323 41.0009H204.869L204.414 41.3194L204.596 41.82L204.141 41.5014L203.64 41.82L203.822 41.3194L203.413 41.0009H203.913L204.141 40.4093Z" fill="#08356C"/>
<path fill-rule="evenodd" clip-rule="evenodd" d="M202.912 39.2263L203.14 39.7724H203.686L203.231 40.1364L203.413 40.637L202.912 40.3185L202.457 40.637L202.639 40.1364L202.184 39.7724H202.73L202.912 39.2263Z" fill="#08356C"/>
<path fill-rule="evenodd" clip-rule="evenodd" d="M202.548 37.6337L202.776 38.1797H203.322L202.867 38.4983L203.049 39.0444L202.548 38.7258L202.093 39.0444L202.23 38.4983L201.82 38.1797H202.366L202.548 37.6337Z" fill="#08356C"/>
<path fill-rule="evenodd" clip-rule="evenodd" d="M203.003 36.0409L203.185 36.587H203.731L203.322 36.9055L203.504 37.4516L203.003 37.133L202.548 37.4516L202.685 36.9055L202.275 36.587H202.821L203.003 36.0409Z" fill="#08356C"/>
<path fill-rule="evenodd" clip-rule="evenodd" d="M204.141 34.8121L204.323 35.4037H204.869L204.414 35.7223L204.596 36.2228L204.141 35.9043L203.64 36.2228L203.822 35.7223L203.367 35.4037H203.913L204.141 34.8121Z" fill="#08356C"/>
<path fill-rule="evenodd" clip-rule="evenodd" d="M205.779 34.4482L206.007 34.9943H206.507L206.098 35.3129L206.28 35.8589L205.779 35.5404L205.324 35.8589L205.461 35.3129L205.051 34.9943H205.597L205.779 34.4482Z" fill="#08356C"/>
<path fill-rule="evenodd" clip-rule="evenodd" d="M207.508 34.7666L207.69 35.3127H208.236L207.827 35.6767L207.963 36.1773L207.508 35.8587L207.008 36.1773L207.19 35.6767L206.78 35.3127H207.326L207.508 34.7666Z" fill="#08356C"/>
<path fill-rule="evenodd" clip-rule="evenodd" d="M208.51 36.0409L208.692 36.587H209.238L208.828 36.9055L208.965 37.4061L208.51 37.0875L208.009 37.4061L208.191 36.9055L207.781 36.587H208.282L208.51 36.0409Z" fill="#08356C"/>
<path d="M133.06 64.7555V59.2493H134.107V64.7555H133.06Z" fill="#0488B7"/>
<path d="M135.199 64.3915L135.427 63.5269C135.609 63.6179 135.836 63.7089 136.109 63.7999C136.382 63.8909 136.61 63.9364 136.792 63.9364C137.11 63.9364 137.338 63.8909 137.52 63.7999C137.702 63.7089 137.793 63.5269 137.793 63.3449C137.793 63.2084 137.747 63.0718 137.611 62.9808C137.474 62.8898 137.292 62.7533 137.019 62.5713L136.792 62.4347C136.428 62.2072 136.155 62.0252 135.927 61.8887C135.7 61.7521 135.518 61.5701 135.381 61.3426C135.245 61.1151 135.154 60.8875 135.154 60.6145C135.154 60.3415 135.245 60.0684 135.381 59.8409C135.518 59.6134 135.745 59.4313 136.018 59.2948C136.291 59.1583 136.655 59.1128 137.019 59.1128C137.474 59.1128 138.02 59.2493 138.567 59.5223L138.202 60.387C137.975 60.296 137.793 60.2049 137.611 60.1139C137.429 60.0684 137.247 60.0229 137.019 60.0229C136.792 60.0229 136.564 60.0684 136.428 60.1594C136.291 60.2504 136.2 60.387 136.2 60.569C136.2 60.7055 136.246 60.842 136.382 60.9785C136.519 61.1151 136.701 61.2061 136.974 61.3881L137.247 61.5246L137.474 61.6611C137.793 61.8432 138.066 62.0252 138.248 62.1617C138.43 62.2982 138.612 62.4803 138.703 62.6623C138.84 62.8443 138.885 63.0718 138.885 63.3449C138.885 63.6634 138.794 63.891 138.658 64.1185C138.521 64.346 138.248 64.528 137.975 64.6645C137.656 64.8011 137.292 64.8466 136.883 64.8466C136.655 64.8466 136.382 64.8011 136.018 64.7101C135.609 64.619 135.381 64.4825 135.199 64.3915Z" fill="#0488B7"/>
<path d="M142.025 59.1128C142.571 59.1128 143.072 59.2493 143.481 59.4768C143.891 59.7499 144.209 60.0684 144.437 60.478C144.664 60.8875 144.755 61.3881 144.755 61.9342C144.755 62.4802 144.664 62.9808 144.437 63.4359C144.209 63.891 143.891 64.2095 143.481 64.437C143.072 64.6645 142.617 64.8011 142.071 64.8011C141.525 64.8011 141.024 64.6645 140.614 64.437C140.205 64.164 139.886 63.8454 139.704 63.4359C139.477 63.0263 139.386 62.5258 139.386 61.9797C139.386 61.4336 139.477 60.933 139.704 60.478C139.932 60.0229 140.25 59.7044 140.66 59.4313C141.024 59.2493 141.525 59.1128 142.025 59.1128ZM140.432 62.0252C140.432 62.3892 140.478 62.7533 140.614 63.0263C140.751 63.3449 140.933 63.5724 141.16 63.7089C141.388 63.8909 141.661 63.9364 142.025 63.9364C142.344 63.9364 142.617 63.8454 142.844 63.7089C143.072 63.5724 143.299 63.3449 143.436 63.0263C143.572 62.7078 143.663 62.3437 143.663 61.9342C143.663 61.5701 143.618 61.2061 143.481 60.933C143.345 60.6145 143.163 60.387 142.935 60.2504C142.708 60.0684 142.435 59.9774 142.116 59.9774C141.843 59.9774 141.57 60.0684 141.297 60.2049C141.069 60.387 140.842 60.6145 140.705 60.8875C140.523 61.2516 140.432 61.6156 140.432 62.0252Z" fill="#0488B7"/>
<path d="M151.081 64.2551H150.353V65.3017H149.306V64.2551H147.076L146.94 63.3905L149.579 60.114H150.353V63.3905H151.217L151.081 64.2551ZM148.032 63.3905H149.261V61.7978L148.032 63.3905Z" fill="#0488B7"/>
<path d="M152.856 63.0718H151.945L152.082 60.1594H155.04L154.949 61.024H152.992L152.947 61.9797C153.083 61.8887 153.311 61.8432 153.538 61.8432C153.948 61.8432 154.266 61.9342 154.539 62.0707C154.812 62.2072 154.994 62.4347 155.131 62.6623C155.267 62.9353 155.313 63.2083 155.358 63.5269C155.358 63.8909 155.267 64.2095 155.131 64.4825C154.949 64.7556 154.721 64.9831 154.448 65.1196C154.13 65.2561 153.811 65.3471 153.402 65.3471C153.129 65.3471 152.81 65.3016 152.537 65.2106C152.218 65.1196 151.945 64.9831 151.672 64.8466L152.173 64.1185C152.4 64.255 152.628 64.346 152.81 64.3915C152.992 64.437 153.22 64.4825 153.447 64.4825C153.72 64.4825 153.993 64.3915 154.175 64.2095C154.357 64.0275 154.448 63.7999 154.448 63.5269C154.448 63.2538 154.357 63.0718 154.221 62.8898C154.084 62.7533 153.857 62.6623 153.629 62.6623C153.447 62.6623 153.311 62.7078 153.174 62.7988C152.992 62.8898 152.901 62.9808 152.856 63.0718Z" fill="#0488B7"/>
<path d="M155.722 62.4348C155.722 61.9797 155.813 61.5702 155.995 61.2061C156.177 60.8421 156.451 60.569 156.815 60.3415C157.179 60.1595 157.543 60.0229 157.952 60.0229C158.362 60.0229 158.771 60.114 159.09 60.3415C159.454 60.5235 159.681 60.8421 159.909 61.2061C160.091 61.5702 160.182 61.9797 160.182 62.4348C160.182 62.8898 160.091 63.2994 159.909 63.6634C159.727 64.0275 159.454 64.3005 159.09 64.5281C158.726 64.7556 158.362 64.8466 157.952 64.8466C157.543 64.8466 157.133 64.7556 156.815 64.5281C156.451 64.3005 156.223 64.0275 155.995 63.6634C155.813 63.2994 155.722 62.8898 155.722 62.4348ZM156.678 62.4348C156.678 62.7078 156.724 62.9809 156.86 63.2084C156.951 63.4359 157.133 63.6179 157.315 63.7545C157.497 63.891 157.725 63.9365 157.998 63.9365C158.225 63.9365 158.453 63.891 158.68 63.7545C158.862 63.6179 159.044 63.4359 159.135 63.2084C159.226 62.9809 159.317 62.7078 159.317 62.4348C159.317 62.1617 159.272 61.8887 159.135 61.6612C159.044 61.4336 158.862 61.2516 158.68 61.1151C158.498 60.9786 158.271 60.9331 157.998 60.9331C157.77 60.9331 157.543 60.9786 157.361 61.1151C157.179 61.2516 156.997 61.4336 156.906 61.6157C156.724 61.8887 156.678 62.1617 156.678 62.4348Z" fill="#0488B7"/>
<path d="M160.592 62.4348C160.592 61.9797 160.683 61.5702 160.865 61.2061C161.047 60.8421 161.32 60.569 161.684 60.3415C162.048 60.1595 162.412 60.0229 162.821 60.0229C163.231 60.0229 163.64 60.114 163.959 60.3415C164.278 60.569 164.551 60.8421 164.778 61.2061C164.96 61.5702 165.051 61.9797 165.051 62.4348C165.051 62.8898 164.96 63.2994 164.778 63.6634C164.596 64.0275 164.323 64.3005 163.959 64.5281C163.595 64.7556 163.231 64.8466 162.821 64.8466C162.412 64.8466 162.002 64.7556 161.684 64.5281C161.32 64.3005 161.092 64.0275 160.865 63.6634C160.683 63.2994 160.592 62.8898 160.592 62.4348ZM161.547 62.4348C161.547 62.7078 161.593 62.9809 161.729 63.2084C161.82 63.4359 162.002 63.6179 162.184 63.7545C162.366 63.891 162.594 63.9365 162.867 63.9365C163.094 63.9365 163.322 63.891 163.549 63.7545C163.731 63.6179 163.914 63.4359 164.005 63.2084C164.096 62.9809 164.187 62.7078 164.187 62.4348C164.187 62.1617 164.141 61.8887 164.005 61.6612C163.914 61.4336 163.731 61.2516 163.549 61.1151C163.367 60.9786 163.14 60.9331 162.867 60.9331C162.639 60.9331 162.412 60.9786 162.23 61.1151C162.048 61.2516 161.866 61.4336 161.775 61.6157C161.638 61.8887 161.547 62.1617 161.547 62.4348Z" fill="#0488B7"/>
<path d="M166.689 64.7556V61.3426L165.779 61.7067L165.37 60.9331L167.053 60.205H167.736V64.8011H166.689V64.7556Z" fill="#0488B7"/>
</svg>
