<svg width="238" height="60" viewBox="0 0 238 60" fill="none" xmlns="http://www.w3.org/2000/svg">
<path d="M70.9733 20.0424L70.9629 21.937C70.9629 22.2246 70.9525 22.5018 70.9351 22.7505C70.8767 23.603 70.5794 24.1775 69.9958 24.579C69.5171 24.9049 68.8842 25.0765 68.1298 25.0765C67.5941 25.0765 67.1147 25.0001 66.6944 24.8285C66.3978 24.7124 66.1192 24.5596 65.9184 24.3303C65.5259 23.8989 65.3821 23.3535 65.3918 22.3962L65.4106 20.0327C65.4196 19.1615 65.3536 18.6356 65.2188 18.2236L65.4599 18.234H66.0817L66.3881 18.2236L66.3311 18.9232C66.32 19.0858 66.32 19.4304 66.3123 19.957L66.2915 22.0141C66.2825 22.8957 66.3318 23.1722 66.4832 23.5272C66.7326 24.0921 67.4031 24.4464 68.1958 24.4464C68.6654 24.4464 69.0871 24.3401 69.4227 24.149C69.6908 23.9864 69.9013 23.7565 70.016 23.498C70.1785 23.1145 70.2174 22.713 70.2265 21.7661L70.2369 20.0431C70.2473 19.1719 70.1792 18.6453 70.0451 18.2333L70.2939 18.2431H70.8295L71.0997 18.2333C70.9928 18.9135 70.9733 19.1129 70.9733 20.0424Z" fill="#DFD4A6"/>
<path d="M79.5588 18.6537C79.531 18.8843 79.5109 19.1136 79.5109 19.3519C79.5109 19.5443 79.5019 19.9271 79.5019 20.5017L79.4914 23.2007C79.4914 23.3535 79.4914 23.5453 79.5019 23.7843C79.531 24.2824 79.5401 24.4637 79.5873 25.0001H79.2254L78.8321 25.0091C78.4688 24.4547 78.3166 24.2435 77.9992 23.8419L75.1758 20.2717L74.4102 19.2775L74.4303 19.7652L74.4199 22.9624C74.4199 23.7565 74.4963 24.4748 74.6394 24.8965L74.3907 24.8771H73.8453L73.5681 24.8965C73.607 24.7041 73.6258 24.5617 73.6341 24.4651C73.664 24.2449 73.6918 24.0156 73.6918 23.7759V22.952L73.7022 20.0327C73.7022 19.1615 73.655 18.6446 73.5202 18.2333L74.0169 18.2528L74.8708 18.2236C75.2049 18.7989 75.3487 19.0094 75.7218 19.4874L78.2583 22.7512L78.7946 23.4314L78.7654 22.7512L78.7745 20.4933C78.7745 19.536 78.689 18.6842 78.5369 18.2333L78.7654 18.2438H79.3504L79.6276 18.2333C79.5873 18.4244 79.5693 18.5585 79.5588 18.6537Z" fill="#DFD4A6"/>
<path d="M83.1596 24.8759H82.4614L82.1925 24.8946L82.2495 24.4646C82.3065 24.0526 82.3176 23.9567 82.3176 23.0758L82.3273 20.0315C82.3273 19.1798 82.269 18.6344 82.1363 18.2224L82.3753 18.2328H82.9971L83.3034 18.2224L83.2465 18.922C83.2367 19.0846 83.2277 19.4292 83.2277 19.9558L83.2166 23.0862C83.2166 23.9568 83.2756 24.4827 83.409 24.8946L83.1596 24.8759Z" fill="#DFD4A6"/>
<path d="M91.2255 18.7217L90.965 19.2671L90.6989 19.8604L89.0802 23.7558C88.7939 24.4449 88.7557 24.561 88.6591 25.0389L88.4584 25.0195H88.0374L87.797 25.0389C87.74 24.6853 87.7213 24.5797 87.5497 24.1212L85.99 19.8993C85.6641 19.0093 85.4252 18.5591 85.2237 18.2333L85.4634 18.2437H86.2199L86.5541 18.2229C86.5729 18.3959 86.5812 18.5293 86.6 18.6161C86.6403 18.8558 86.7639 19.2483 86.9654 19.8222L88.0179 22.895L88.3528 23.9475L88.8023 22.8081L89.8353 20.1091C90.0952 19.4387 90.2181 18.9795 90.2181 18.6161C90.2181 18.482 90.2084 18.4049 90.1528 18.2333L90.4571 18.2437H91.1755L91.452 18.2229L91.4707 18.2618C91.3582 18.4633 91.2713 18.6161 91.2255 18.7217Z" fill="#DFD4A6"/>
<path d="M97.31 24.2157L97.2238 24.588L97.1564 24.9326C96.9828 24.9236 96.8584 24.9139 96.782 24.9139C96.7438 24.9139 96.3617 24.9049 95.6259 24.8951L94.3421 24.8764L93.3937 24.8951L93.4521 24.4651C93.5091 24.0427 93.5188 23.9579 93.5188 23.0763L93.5285 20.032C93.5285 19.1608 93.4813 18.6446 93.3465 18.2326L93.8537 18.2417H95.1841C96.2665 18.2417 96.3721 18.2326 97.0126 18.2139L96.8876 18.5203L96.7625 18.9121L96.6965 19.1518L96.5805 19.1705C96.4096 18.9788 96.3227 18.9211 96.0942 18.8537C95.8343 18.7773 95.5196 18.7391 95.1639 18.7391C95.0118 18.7391 94.754 18.7488 94.4664 18.7669L94.4268 19.925V21.0644H95.6898C96.0935 21.0644 96.2651 21.0456 96.7236 21.0067L96.8104 21.0831L96.6757 21.3798L96.5506 21.7063C96.3603 21.6868 96.2164 21.6771 96.1213 21.6771C95.7954 21.6583 95.4891 21.6479 95.1827 21.6479C94.9243 21.6479 94.7992 21.6479 94.4164 21.6681V23.1034C94.4164 23.218 94.4261 23.3618 94.4352 23.5432C94.4546 23.8878 94.4928 24.0316 94.6075 24.1552C94.761 24.3081 94.9805 24.3567 95.537 24.3567C95.8899 24.3567 96.1671 24.3379 96.427 24.2893C96.5499 24.2706 96.6847 24.2323 96.8097 24.1747C96.9807 24.0976 97.0765 24.0309 97.2683 23.8488L97.3933 23.9065L97.31 24.2157Z" fill="#DFD4A6"/>
<path d="M104.683 24.8946L104.435 24.9051L103.708 24.9238L103.305 24.9516L103.192 24.78L103.066 24.5605C103.019 24.4653 102.942 24.3493 102.855 24.2055C102.452 23.5545 102.031 22.9515 101.524 22.2435C101.095 21.6405 100.913 21.487 100.683 21.2487C101.141 21.239 101.429 21.2195 101.668 21.1236C102.128 20.9513 102.406 20.4442 102.406 19.8884C102.406 19.152 101.926 18.6726 101.123 18.6726C100.951 18.6726 100.797 18.683 100.443 18.7303C100.423 19.1332 100.414 19.2291 100.414 19.9558L100.405 23.0862C100.405 23.9574 100.463 24.484 100.595 24.8946L100.348 24.8766H99.6484L99.3796 24.8946C99.4852 24.2152 99.5046 23.9852 99.5046 23.0765L99.5151 20.0322C99.5151 19.161 99.4671 18.6448 99.3316 18.2328L99.8305 18.2523L100.74 18.2231C100.989 18.2134 101.21 18.2134 101.419 18.2134C102.233 18.2134 102.53 18.2898 102.855 18.5476C103.171 18.8067 103.344 19.2367 103.344 19.7057C103.344 20.1072 103.21 20.5289 102.96 20.7964C102.75 21.018 102.482 21.1993 102.022 21.4376L102.242 21.7343L103.151 23.0362C103.572 23.649 103.993 24.1756 104.281 24.4715C104.434 24.6251 104.502 24.6827 104.692 24.8266L104.683 24.8946Z" fill="#DFD4A6"/>
<path d="M107.769 25.1148C107.653 25.1148 107.529 25.1057 107.395 25.0967C107.002 25.0578 106.82 25.0196 106.351 24.8473L106.456 24.5124L106.571 24.0727L106.63 23.8337L106.763 23.8045C106.936 24.0726 107.022 24.1783 107.202 24.2929C107.443 24.4554 107.778 24.5513 108.065 24.5513C108.84 24.5513 109.414 24.0344 109.414 23.355C109.414 23.0868 109.327 22.8284 109.166 22.6276C108.965 22.3789 108.706 22.1878 108.122 21.8717C107.251 21.4035 107.126 21.3173 106.868 21.0582C106.58 20.7609 106.418 20.3496 106.418 19.9091C106.418 18.7698 107.319 18.0042 108.678 18.0042C108.793 18.0042 108.906 18.0146 109.022 18.0236C109.395 18.0521 109.596 18.1007 110.085 18.2633L109.978 18.5308L109.836 18.9803L109.788 19.181L109.664 19.1998C109.319 18.7308 108.975 18.5593 108.41 18.5593C107.7 18.5593 107.232 18.9705 107.232 19.5826C107.232 19.8709 107.346 20.1287 107.558 20.3204C107.778 20.5128 108.007 20.665 108.63 21.0005C109.414 21.4222 109.653 21.5938 109.912 21.919C110.143 22.2156 110.257 22.5804 110.257 22.9722C110.257 24.2158 109.224 25.1148 107.769 25.1148Z" fill="#DFD4A6"/>
<path d="M113.368 24.8759H112.67L112.401 24.8946L112.458 24.4646C112.516 24.0526 112.526 23.9567 112.526 23.0758L112.537 20.0315C112.537 19.1798 112.478 18.6344 112.345 18.2224L112.584 18.2328H113.206L113.512 18.2224L113.455 18.922C113.446 19.0846 113.436 19.4292 113.436 19.9558L113.426 23.0862C113.426 23.9568 113.485 24.4827 113.617 24.8946L113.368 24.8759Z" fill="#DFD4A6"/>
<path d="M121.03 24.0996C120.333 24.6659 119.519 24.9049 118.294 24.9049C118.064 24.9049 117.672 24.8757 117.097 24.8757H116.398L116.13 24.8944L116.187 24.4644C116.244 24.0524 116.255 23.9565 116.255 23.0756L116.266 20.0702C116.266 19.1983 116.208 18.6439 116.073 18.2319C116.361 18.2424 116.198 18.2423 116.945 18.2423C117.338 18.2423 117.968 18.2319 118.361 18.2319C118.695 18.2319 118.984 18.2319 119.223 18.2423C120.008 18.2604 120.487 18.357 120.908 18.5765C121.798 19.0448 122.325 20.0605 122.325 21.2762C122.325 22.4149 121.865 23.4396 121.03 24.0996ZM120.639 19.4866C120.16 18.951 119.568 18.7488 118.409 18.7488C118.103 18.7488 117.796 18.7697 117.194 18.7974L117.164 19.9556L117.156 23.0659C117.156 23.1903 117.164 23.3445 117.174 23.507C117.193 23.8516 117.231 23.9954 117.345 24.1198C117.413 24.1858 117.489 24.2344 117.586 24.2629C117.787 24.3192 118.141 24.3491 118.494 24.3491C120.246 24.3491 121.31 23.2861 121.31 21.5159C121.31 20.6934 121.071 19.975 120.639 19.4866Z" fill="#DFD4A6"/>
<path d="M129.402 24.8757H128.789L128.368 24.9049L128.302 24.5013C128.244 24.1956 128.148 23.8989 127.956 23.3445L127.632 22.3969L127.047 22.3768H125.909L125.238 22.3969L124.913 23.2681C124.731 23.7655 124.635 24.1671 124.635 24.4547C124.635 24.5985 124.645 24.6937 124.702 24.8945L124.405 24.8757H123.745L123.487 24.8945L123.448 24.8368L123.677 24.4054C123.745 24.281 123.831 24.0997 123.945 23.86C124.06 23.6127 124.146 23.4098 124.205 23.2674L125.793 19.3609C126.023 18.8065 126.071 18.644 126.194 18.1646L126.396 18.1368L126.817 18.0687L127.027 18.0305C127.123 18.4328 127.162 18.5849 127.325 19.0066L128.913 23.2285C129.038 23.5731 129.239 24.0226 129.469 24.4818C129.554 24.6541 129.592 24.7215 129.698 24.8931L129.402 24.8757ZM126.483 19.0942L125.44 21.8418L126.005 21.8613H126.933L127.43 21.8418L126.483 19.0942Z" fill="#DFD4A6"/>
<path d="M136.53 24.0996C135.83 24.6659 135.018 24.9049 133.793 24.9049C133.563 24.9049 133.171 24.8757 132.595 24.8757H131.898L131.628 24.8944L131.686 24.4644C131.744 24.0524 131.754 23.9565 131.754 23.0756L131.763 20.0702C131.763 19.1983 131.706 18.6439 131.573 18.2319C131.86 18.2424 131.698 18.2423 132.442 18.2423C132.835 18.2423 133.467 18.2319 133.86 18.2319C134.194 18.2319 134.482 18.2319 134.721 18.2423C135.505 18.2604 135.984 18.357 136.405 18.5765C137.295 19.0448 137.822 20.0605 137.822 21.2762C137.821 22.4149 137.363 23.4396 136.53 24.0996ZM136.138 19.4866C135.659 18.951 135.065 18.7488 133.906 18.7488C133.6 18.7488 133.294 18.7697 132.691 18.7974L132.661 19.9556L132.652 23.0659C132.652 23.1903 132.661 23.3445 132.673 23.507C132.69 23.8516 132.73 23.9954 132.844 24.1198C132.91 24.1858 132.988 24.2344 133.083 24.2629C133.284 24.3192 133.639 24.3491 133.993 24.3491C135.745 24.3491 136.807 23.2861 136.807 21.5159C136.807 20.6934 136.567 19.975 136.138 19.4866Z" fill="#DFD4A6"/>
<path d="M66.5277 43.2645C67.3989 43.8453 68.4368 44.2816 69.6394 44.2816C70.6982 44.2816 71.7556 43.9085 71.7556 42.8706C71.7556 40.4029 65.9059 40.7142 65.9059 36.5235C65.9059 34.4699 67.5441 32.6233 70.4905 32.6233C71.9432 32.6233 73.1666 32.9554 73.9537 33.35V35.901C72.772 35.3209 71.6715 35.0083 70.5738 35.0083C69.7013 35.0083 68.935 35.3209 68.935 36.2741C68.935 38.598 74.7839 38.2666 74.7839 42.6219C74.7839 45.1111 72.6066 46.6465 69.7436 46.6465C68.1458 46.6465 66.5486 46.2109 65.4488 45.4015L66.5277 43.2645Z" fill="#DFD4A6"/>
<path d="M78.0089 44.0948C77.6143 43.3472 77.4065 42.3941 77.4065 41.2728V32.7678H80.248V41.1074C80.248 41.8133 80.3932 42.435 80.6426 42.9123C81.1206 43.8044 82.0321 44.2816 83.2979 44.2816C84.5422 44.2816 85.4557 43.8044 85.933 42.9123C86.2026 42.435 86.3262 41.8133 86.3262 41.0873V32.7678H89.1691V41.2728C89.1691 42.3934 88.96 43.3465 88.5674 44.0948C87.6747 45.8364 85.808 46.6458 83.2777 46.6458C80.7468 46.6458 78.9009 45.8364 78.0089 44.0948Z" fill="#DFD4A6"/>
<path d="M92.5934 32.7678H96.6785C97.9047 32.7678 98.8162 32.9547 99.5422 33.2861C101.119 33.9704 101.72 35.2779 101.72 36.7306C101.72 38.5133 100.601 39.7582 99.0649 40.2362V40.2779C99.4796 40.5065 100.083 41.2526 100.807 42.5184L103.027 46.4388H99.77L97.9665 43.1617C97.2822 41.8751 96.8035 41.3568 96.4721 41.2734H95.4356V46.4388H92.5941V32.7678H92.5934ZM96.4916 38.9704C97.1141 38.9704 97.508 38.8676 97.8623 38.68C98.4007 38.3479 98.7745 37.788 98.7745 37.021C98.7745 36.295 98.4424 35.6718 97.8415 35.3606C97.5309 35.1744 97.1363 35.0702 96.5131 35.0702H95.4349V38.9697H96.4916V38.9704Z" fill="#DFD4A6"/>
<path d="M115.868 45.5259C114.271 46.3985 112.736 46.6458 111.326 46.6458C106.74 46.6458 104.293 43.7425 104.293 39.7381C104.293 35.817 107.157 32.6233 111.677 32.6233C113.193 32.6233 114.437 32.8928 115.329 33.2882V35.901C114.231 35.3195 113.048 35.0097 111.741 35.0097C108.754 35.0097 107.322 37.1877 107.322 39.6978C107.322 42.3947 109.003 44.2816 111.678 44.2816C113.069 44.2816 114.086 43.8662 115.081 43.2868L115.868 45.5259Z" fill="#DFD4A6"/>
<path d="M117.341 39.6339C117.341 35.4856 120.202 32.6233 124.309 32.6233C128.417 32.6233 131.28 35.5057 131.28 39.6339C131.28 43.8245 128.397 46.6458 124.309 46.6458C120.202 46.6458 117.341 43.8043 117.341 39.6339ZM128.251 39.6339C128.251 36.6673 126.674 35.0076 124.309 35.0076C121.966 35.0076 120.368 36.6465 120.368 39.6339C120.368 42.6427 121.966 44.2802 124.309 44.2802C126.654 44.2809 128.251 42.6427 128.251 39.6339Z" fill="#DFD4A6"/>
<path d="M134.113 32.7678H136.955V44.0329H141.726V46.4381H134.113V32.7678Z" fill="#DFD4A6"/>
<path d="M142.911 39.6339C142.911 35.4856 145.773 32.6233 149.88 32.6233C153.987 32.6233 156.851 35.5057 156.851 39.6339C156.851 43.8245 153.967 46.6458 149.88 46.6458C145.773 46.6458 142.911 43.8043 142.911 39.6339ZM153.822 39.6339C153.822 36.6673 152.245 35.0076 149.88 35.0076C147.537 35.0076 145.939 36.6465 145.939 39.6339C145.939 42.6427 147.537 44.2802 149.88 44.2802C152.225 44.2809 153.822 42.6427 153.822 39.6339Z" fill="#DFD4A6"/>
<path d="M159.685 32.7678H162.256L165.761 37.7261C166.219 38.3702 166.551 38.8877 166.862 39.4268H166.904C167.173 38.9079 167.525 38.3271 167.96 37.6428L171.134 32.7678H173.727V46.4381H170.885V39.0962C170.885 38.5557 170.885 37.9332 170.905 37.4573H170.885C170.72 37.8102 170.179 38.598 169.951 38.9495L167.504 42.7254H166.218L163.459 38.8266C163.167 38.4327 162.837 37.9971 162.546 37.4781H162.504C162.525 37.9554 162.525 38.5779 162.525 39.0135V46.4388H159.683V32.7678H159.685Z" fill="#DFD4A6"/>
<path d="M177.251 32.7686H181.546C184.512 32.7686 185.839 34.4901 185.839 36.2318C185.839 37.3517 185.279 38.4515 184.22 38.9913V39.033C185.86 39.4686 186.774 40.7962 186.774 42.3316C186.774 44.4053 185.155 46.4395 181.919 46.4395H177.252V32.7686H177.251ZM181.172 38.3479C182.417 38.3479 183.061 37.6421 183.061 36.7508C183.061 35.817 182.438 35.0903 181.11 35.0903H180.092V38.3473H181.172V38.3479ZM181.546 44.1149C183.123 44.1149 183.909 43.5765 183.909 42.3316C183.909 41.2735 183.122 40.6712 181.814 40.6712H180.092V44.1149H181.546Z" fill="#DFD4A6"/>
<path d="M192.366 32.7671H189.524V46.4374H192.366V32.7671Z" fill="#DFD4A6"/>
<path d="M199.612 32.7053H201.914L207.495 46.4395H204.445L203.118 43.0985H198.472L197.206 46.4395H194.281L199.612 32.7053ZM202.268 40.817L201.458 38.5147C201.127 37.5191 200.959 36.9369 200.836 36.4812H200.793C200.69 36.9585 200.483 37.5393 200.109 38.5341L199.281 40.817H202.268Z" fill="#DFD4A6"/>
<path d="M219.4 46.4395L213.676 38.9503C213.177 38.2868 212.741 37.6636 212.266 37.062H212.224C212.286 37.5608 212.286 38.4112 212.286 39.0747V46.4395H209.444V32.7686H212.286L217.782 39.9667C218.322 40.651 218.758 41.2526 219.173 41.8536H219.214C219.173 41.1276 219.173 40.2161 219.173 39.5721V32.7686H222.015V46.4395H219.4Z" fill="#DFD4A6"/>
<path d="M229.295 32.7053H231.596L237.177 46.4395H234.127L232.8 43.0985H228.153L226.888 46.4395H223.963L229.295 32.7053ZM231.95 40.817L231.141 38.5147C230.809 37.5191 230.642 36.9369 230.518 36.4812H230.476C230.373 36.9585 230.165 37.5393 229.791 38.5341L228.963 40.817H231.95Z" fill="#DFD4A6"/>
<path d="M29.4254 60C29.0058 60 28.7022 59.993 28.5098 59.9875C28.3326 59.993 28.0283 60 27.6087 60C25.5217 59.9993 22.2502 59.8423 18.5119 59.1066C13.2076 58.061 9.11422 56.4527 5.99556 54.1899C5.95735 54.1621 5.88856 54.1156 5.79894 54.0545L5.74823 54.0197C5.55648 53.8884 5.2904 53.7092 4.99027 53.4612C4.69154 53.2159 4.43102 52.9651 4.19759 52.6935C3.7474 52.1752 3.38266 51.5618 3.14507 50.9177C2.87204 50.1987 2.73725 49.4067 2.73725 48.5626V13.9002L1.87717 13.4216C1.56454 13.2472 1.28178 13.0332 1.03723 12.788C0.673194 12.4288 0.377932 11.9668 0.209111 11.4916C0.0687751 11.1074 0 10.701 0 10.2876V6.42839C0 5.79687 0.18688 3.73837 2.59135 3.73837H15.0959C15.7031 3.36113 21.3158 0 28.3729 0H28.5167H28.6585C35.7149 0 41.3283 3.36044 41.9362 3.73837H54.44C56.8473 3.73837 57.0321 5.79687 57.0321 6.42839V10.2876C57.0321 10.701 56.9619 11.1074 56.8223 11.4916C56.6535 11.9668 56.3596 12.4288 55.9949 12.7894C55.7517 13.0332 55.4682 13.2472 55.1549 13.4216L54.2934 13.9002V48.5626C54.2962 49.4067 54.1601 50.198 53.8891 50.9177C53.6501 51.5618 53.2854 52.1752 52.8345 52.6935C52.6011 52.9658 52.3406 53.2166 52.0439 53.4612C51.7417 53.7085 51.4784 53.8877 51.2832 54.0197L51.2331 54.0545C51.1421 54.1156 51.0741 54.1621 51.0365 54.1899C47.9186 56.4527 43.8245 58.061 38.5202 59.1066C34.7839 59.843 31.5124 60 29.4254 60Z" fill="#DFD4A6"/>
<path d="M40.348 7.48911V10.1006C40.348 10.3389 40.5926 10.5362 40.7051 10.5994C42.5733 11.652 42.9589 11.8791 42.9589 12.3717V44.3656C42.9589 45.441 42.5524 45.7342 41.7611 46.124C39.7242 47.1279 35.214 48.9258 28.5515 48.9258C21.8869 48.9258 17.3781 47.1279 15.3411 46.124C14.5512 45.7335 14.1413 45.441 14.1413 44.3656V12.3724C14.1413 11.884 14.5213 11.6318 16.3554 10.6001C16.4812 10.5286 16.7535 10.3855 16.7535 10.0423V7.54818C16.7535 7.20984 16.5597 6.60403 15.9907 6.60403H3.8773C3.3097 6.60403 3.1131 7.01948 3.1131 7.54818V10.1013C3.1131 10.4132 3.46046 10.5119 3.61677 10.6001C5.355 11.5804 5.69959 11.893 5.69959 12.3724V48.1887C5.69959 50.2514 6.35194 50.8398 7.08767 51.3734C15.3717 57.3898 28.5508 56.7763 28.5508 56.7763C28.5508 56.7763 41.1046 57.3898 49.3886 51.3734C50.1236 50.8398 51.4013 50.2514 51.4013 48.1887V12.3724C51.4013 11.8771 51.9049 11.6645 53.8071 10.6001C53.9127 10.5397 54.1406 10.4 54.1406 10.1013V7.48981C54.1406 7.15147 53.8954 6.57275 53.3278 6.57275H41.1595C40.5926 6.57206 40.348 7.15077 40.348 7.48911Z" fill="#8F141B"/>
<path d="M22.0147 22.3641C20.1653 21.2768 19.4247 19.7984 19.1288 18.7501C18.8078 17.6121 18.9245 16.7395 18.9294 16.7034L19.2365 16.7465C19.2323 16.7798 18.8162 20.1215 22.1731 22.0952L22.0147 22.3641Z" fill="#8F141B"/>
<path d="M37.1044 20.4967L36.8508 20.3154C38.0992 18.564 37.8206 16.6771 37.8178 16.6583L38.127 16.616C38.1395 16.6952 38.4257 18.6453 37.1044 20.4967Z" fill="#8F141B"/>
<path d="M29.7429 45.6947C28.6341 45.6947 27.6059 45.4655 26.6847 45.0111V45.1834C26.6847 45.314 26.5791 45.4176 26.4499 45.4176H20.0743C19.9465 45.4176 19.8395 45.314 19.8395 45.1834V35.3467C19.8395 35.2182 19.9465 35.1133 20.0743 35.1133H24.9229C24.3206 34.652 23.3674 33.9197 22.8317 33.4938C21.9321 32.7782 19.8388 30.8059 19.8388 27.9408C19.8388 24.4012 21.461 22.4726 22.8199 21.4756C24.7186 20.0855 26.7743 19.9778 27.3607 19.9778C28.4709 19.9778 29.4963 20.207 30.4189 20.6635V20.4891C30.4189 20.3599 30.5231 20.2557 30.6524 20.2557H37.0286C37.1578 20.2557 37.2634 20.3599 37.2634 20.4891V30.3252C37.2634 30.4558 37.1578 30.56 37.0286 30.56H32.1752C32.7102 30.9726 33.5487 31.6201 34.2698 32.1773C35.7156 33.2972 37.2641 35.3453 37.2641 37.7317C37.2641 41.3353 35.6371 43.2639 34.2719 44.2462C32.4093 45.5898 30.3342 45.6947 29.7429 45.6947ZM26.4499 44.3873C26.4909 44.3873 26.5298 44.3977 26.5659 44.4178C27.5177 44.9625 28.557 45.2265 29.7429 45.2265C30.2994 45.2265 32.2488 45.1278 33.9982 43.8655C35.2751 42.9464 36.7945 41.1359 36.7945 37.731C36.7945 35.5148 35.3411 33.6001 33.9829 32.5483C32.8185 31.6451 31.3464 30.5093 31.3464 30.5093C31.2672 30.4488 31.2352 30.3446 31.2672 30.2487C31.3005 30.1542 31.3881 30.0903 31.4902 30.0903H36.7945V20.7225H30.8893V21.0498C30.8893 21.1352 30.8448 21.2109 30.7712 21.2533C30.6989 21.2943 30.6114 21.2957 30.5377 21.2533C29.5873 20.7107 28.548 20.4453 27.3614 20.4453C26.8126 20.4453 24.8826 20.5482 23.0978 21.8536C21.8251 22.7838 20.3078 24.5964 20.3078 27.9394C20.3078 30.601 22.2766 32.4524 23.1235 33.1256C23.9398 33.7759 25.7385 35.1466 25.7573 35.1612C25.8372 35.2209 25.8677 35.3252 25.8372 35.421C25.8038 35.5162 25.7142 35.5801 25.6148 35.5801H20.3078V44.9479H26.2151V44.62C26.2151 44.5359 26.2596 44.4602 26.3311 44.4171C26.3679 44.3977 26.4089 44.3873 26.4499 44.3873Z" fill="#8F141B"/>
<path d="M29.743 44.1045C28.0402 44.1045 27.0787 43.441 26.5625 43.0839L26.4256 42.9873C26.1081 42.7629 25.9511 42.6546 25.6315 42.6907C25.1869 42.7393 25.0938 43.0165 25.0938 43.2409V43.6848C25.0938 43.7626 25.0306 43.8259 24.9521 43.8259H21.575C21.4958 43.8259 21.4326 43.7626 21.4326 43.6848V36.8438C21.4326 36.766 21.4958 36.7028 21.575 36.7028H26.5305C26.5611 36.7028 26.5937 36.7146 26.6187 36.7347C26.6299 36.7451 27.8297 37.7185 28.2076 37.9984L28.2861 38.0589C28.4737 38.2041 28.7599 38.4222 29.0719 38.4222C29.306 38.4222 29.5248 38.3062 29.7437 38.0637C29.9298 37.8616 30.0167 37.6434 30.0014 37.4156C29.9868 37.1696 29.8465 36.9216 29.6103 36.7174L23.8829 32.2933C22.9679 31.5742 21.4326 30.0521 21.4326 27.9387C21.4326 22.8991 25.3106 21.5659 27.3621 21.5659C29.0649 21.5659 30.0243 22.2308 30.5426 22.5872L30.6795 22.6831C30.9963 22.9061 31.1498 23.013 31.4735 22.979C31.9175 22.9304 32.0106 22.6525 32.0106 22.4281V21.9848C32.0106 21.9063 32.0745 21.8424 32.1516 21.8424H35.5308C35.6086 21.8424 35.6725 21.9063 35.6725 21.9848V28.8245C35.6725 28.9044 35.6086 28.9662 35.5308 28.9662H30.5752C30.5433 28.9662 30.512 28.9551 30.4856 28.935C30.4738 28.9266 29.2747 27.9505 28.8961 27.6719L28.8162 27.6108C28.6293 27.467 28.3452 27.2488 28.0332 27.2488C27.7984 27.2488 27.5803 27.3649 27.36 27.6052C27.1752 27.8081 27.0884 28.0262 27.103 28.2541C27.1176 28.5014 27.2579 28.7474 27.4941 28.9516L33.2222 33.3764C34.8493 34.6901 35.6725 36.1532 35.6725 37.7303C35.6725 40.084 34.8888 41.8403 33.3424 42.9547C31.864 44.0211 30.214 44.1045 29.743 44.1045Z" fill="#8F141B"/>
<path d="M28.4764 20.1902C24.9868 20.1902 22.6038 19.2315 21.2179 18.427C19.7117 17.551 19.0413 16.6812 19.0128 16.645L19.2608 16.4561C19.2879 16.4901 21.9494 19.8783 28.4764 19.8783C31.8883 19.8783 34.2128 18.9474 35.5599 18.1672C37.0217 17.321 37.6851 16.4644 37.6914 16.4561L37.9401 16.645C37.9109 16.6818 37.2405 17.5517 35.7336 18.427C34.3504 19.2315 31.9675 20.1902 28.4764 20.1902Z" fill="#8F141B"/>
<path d="M39.7951 41.7216C39.7951 41.4756 39.7923 40.999 39.7895 40.348C39.7853 38.7835 39.7777 36.2658 39.7749 33.4987V33.3111C39.7735 32.2641 39.7714 30.5613 39.7714 29.4852C40.6649 28.969 42.6421 26.75 39.67 18.8565C39.2754 17.7046 38.8203 17.0668 38.4785 16.732C38.9113 16.5249 39.2629 16.1283 39.4734 15.7642C39.9868 14.8798 40.1556 13.7203 40.2452 13.0971C40.2654 12.9651 40.2786 12.8609 40.2939 12.7963C40.4293 12.1481 40.2584 11.8153 39.6561 11.568L38.8829 11.2464V7.48645C38.8829 6.74586 38.9516 6.68473 39.1781 6.4777C39.2254 6.43185 39.283 6.38252 39.3442 6.3193C39.5866 6.07823 39.6895 5.78991 39.6346 5.50715C39.5866 5.26678 39.4025 4.92636 38.7974 4.66861C34.2261 2.67403 29.9798 2.52051 28.7863 2.52051C28.6571 2.52051 28.5841 2.52259 28.5827 2.52259C28.5716 2.52259 28.4973 2.52051 28.3674 2.52051C27.1752 2.52051 22.9304 2.67472 18.3597 4.66861C17.7505 4.92636 17.5684 5.26678 17.5226 5.50715C17.4656 5.79061 17.5684 6.07823 17.8102 6.3193C17.8665 6.37766 17.9214 6.4263 17.9693 6.47007C18.1972 6.68127 18.2576 6.73683 18.2576 7.48645L18.259 11.2436C18.0763 11.3158 17.7588 11.4458 17.4781 11.5701C16.8772 11.8341 16.7111 12.1551 16.848 12.7963C16.8612 12.8609 16.8772 12.9651 16.8959 13.0971C16.9856 13.7203 17.1551 14.8798 17.6678 15.7642C17.9471 16.2436 18.2486 16.5604 18.5807 16.7306C18.1854 17.1328 17.7907 17.8165 17.4246 18.753C14.9743 25.2577 15.7531 28.6112 17.3385 29.5095C17.3406 33.5042 17.3496 38.2006 17.3572 40.3529C17.3579 41.0025 17.3593 41.4763 17.3607 41.7223C17.1106 41.946 16.8272 42.4517 16.7445 42.9589C16.6535 43.5202 16.8021 44.0135 17.1738 44.3866C18.1596 45.3717 24.6603 46.6778 28.5765 46.6778C32.4941 46.6778 38.9919 45.3717 39.9798 44.3866C40.3508 44.0135 40.5009 43.5202 40.4113 42.9589C40.3293 42.4524 40.0438 41.9466 39.7951 41.7216ZM39.4789 12.0015C39.8729 12.1641 39.9257 12.2697 39.8367 12.7011C39.8208 12.7727 39.8027 12.8866 39.7825 13.0311C39.6978 13.6237 39.5359 14.7263 39.0691 15.5301C38.9565 15.7253 38.7877 15.9407 38.5848 16.1109C38.4521 16.2227 38.0686 16.4131 38.0256 15.7191C37.9964 15.2647 38.054 14.8131 38.2222 14.3699C38.6529 13.2368 38.8356 12.524 38.8745 11.7528L39.4789 12.0015ZM34.2483 9.62902C32.6643 9.55052 31.6576 10.3592 31.0629 11.1317C30.6037 11.4541 29.6721 11.9821 28.5223 11.9474C27.3371 11.9474 26.3992 11.3756 25.9685 11.0574C25.3661 10.3064 24.3734 9.55399 22.8387 9.62902C20.3557 9.74504 19.331 11.6625 18.976 12.9603C18.8467 12.4427 18.762 11.9432 18.73 11.4659L19.4255 11.2304C19.481 11.2123 19.5206 11.1581 19.5213 11.0977L19.5366 9.99931C20.0118 9.82354 22.3885 8.98499 25.9678 8.54592C26.04 8.53619 26.0907 8.47645 26.0907 8.40558V8.02141H30.76V8.40558C30.76 8.47783 30.8149 8.53897 30.8865 8.54592C30.9261 8.55078 34.7429 8.96 37.6393 10.0549V11.0831C37.6393 11.1414 37.674 11.1929 37.7268 11.2151C37.7379 11.2179 37.9547 11.3068 38.4146 11.4617C38.4104 11.9904 38.3465 12.4552 38.1826 13.0353C37.8283 11.7591 36.7966 9.74643 34.2483 9.62902ZM36.5986 11.1123C36.4617 11.3429 35.6669 12.5198 33.9899 12.2704C33.2798 12.1641 32.7935 11.7716 32.5052 11.3881C32.1905 10.974 32.2878 10.603 32.3815 10.5468C32.8602 10.255 33.4674 10.0611 34.2254 10.0952C35.2869 10.1466 36.0525 10.5641 36.5986 11.1123ZM30.4613 12.4983C30.4731 12.5024 31.5722 12.8762 32.4552 13.9614C32.5254 14.0628 32.3017 14.2608 32.1426 14.2191C31.782 14.1246 30.9893 13.953 30.4849 14.6123C30.4808 14.6186 30.4745 14.6228 30.471 14.6283C30.4217 14.6797 29.8103 15.2967 28.5869 15.2967C27.3433 15.2967 26.666 14.6512 26.6312 14.6165C25.9212 13.976 25.2425 14.1636 24.8381 14.2205C24.6436 14.249 24.4345 14.1073 24.5456 13.9461C25.4342 12.8748 26.6062 12.5045 26.6187 12.5004C26.7306 12.4538 26.7896 12.3302 26.7542 12.2141C26.7486 12.2044 26.6396 12.1071 26.3783 11.6576C26.9077 11.9459 27.6455 12.2287 28.5167 12.2287C28.5577 12.2294 28.5939 12.2294 28.6348 12.2294C29.4657 12.2294 30.1737 11.9682 30.6864 11.6945C30.4405 12.1252 30.3349 12.2044 30.3314 12.2141C30.2973 12.3281 30.3536 12.4496 30.4613 12.4983ZM24.6867 11.3033C24.399 11.7056 23.9044 12.1572 23.1409 12.2711C21.4256 12.5247 20.6336 11.2887 20.5204 11.0977C21.0574 10.5558 21.8126 10.1452 22.8581 10.0966C23.6126 10.0625 24.2073 10.2626 24.6908 10.5384C24.8597 10.6329 24.9236 10.9719 24.6867 11.3033ZM18.7245 7.40239C19.3553 7.17451 21.8424 6.29916 23.8134 5.96916C23.828 5.97819 23.8467 5.9893 23.8662 6.00181C25.2862 6.87023 26.8647 7.30861 28.5577 7.30861C30.2487 7.30861 31.8265 6.87023 33.2458 6.00181C33.2673 5.9893 33.2854 5.9775 33.3 5.96916C35.2716 6.29916 37.7803 7.17451 38.4146 7.40239C38.4146 7.43087 38.4139 7.45937 38.4139 7.48855V11.163C38.1763 11.0824 38.0117 11.022 37.9214 10.9879V9.95762C37.9214 9.89927 37.8859 9.84646 37.8303 9.82492C35.1897 8.80714 31.7417 8.36253 31.0428 8.27916V7.88108C31.0428 7.80188 30.9803 7.73864 30.9018 7.73864H25.949C25.8719 7.73864 25.8094 7.80188 25.8094 7.88108V8.28124C21.848 8.78144 19.3678 9.76031 19.3421 9.77073C19.2893 9.79227 19.2546 9.84299 19.2525 9.90066L19.2386 10.9955L18.7245 11.1699V7.48785C18.7259 7.45867 18.7245 7.43087 18.7245 7.40239ZM18.1416 5.9907C18.0673 5.91567 17.9478 5.76629 17.9804 5.59747C18.0172 5.41406 18.2152 5.23968 18.5466 5.09934C23.1506 3.09017 27.5365 2.98875 28.3681 2.98875C28.4987 2.98875 28.5668 2.99014 28.5855 2.99014C28.5876 2.99014 28.6578 2.98875 28.7863 2.98875C29.6193 2.98875 34.0058 3.09018 38.6119 5.10074C38.9391 5.23969 39.1406 5.41476 39.1754 5.59747C39.208 5.76629 39.0899 5.91567 39.0149 5.9907C38.96 6.04628 38.9086 6.09213 38.862 6.13381C38.6161 6.3589 38.4931 6.51105 38.4424 6.91469C37.6198 6.62429 35.2022 5.80035 33.3 5.49397C33.2861 5.49258 33.2743 5.49257 33.2618 5.49257C33.1854 5.49257 33.1381 5.51896 33.0033 5.60233C31.6576 6.42559 30.1612 6.84175 28.5591 6.84175C26.9536 6.84175 25.4578 6.42559 24.1114 5.60233C23.9551 5.50576 23.9037 5.48146 23.8155 5.49397C21.9154 5.80035 19.5179 6.62151 18.7022 6.91469C18.6529 6.50549 18.5292 6.35126 18.2861 6.12756C18.243 6.08726 18.1944 6.0435 18.1416 5.9907ZM18.3243 15.9059C18.2389 15.7983 18.1555 15.6732 18.0721 15.5294C17.6053 14.7256 17.4441 13.623 17.3586 13.0304C17.3392 12.8859 17.3197 12.772 17.3058 12.6991C17.2162 12.2746 17.2669 12.1773 17.6678 11.9994C17.8762 11.9063 18.1075 11.8119 18.2854 11.7389C18.3667 12.5747 18.5855 13.4577 18.9336 14.3692C19.0823 14.7596 19.0996 15.2258 19.0468 15.7302C18.9857 16.295 18.5112 16.1408 18.3243 15.9059ZM39.6485 44.0558C38.9023 44.8048 32.772 46.2088 28.5772 46.2088C26.1296 46.2088 23.0221 45.7309 20.71 45.1827H20.0056V45.007C18.714 44.6693 17.772 44.3198 17.5059 44.0558C17.2495 43.7988 17.1481 43.4695 17.2016 43.0756C17.2718 42.5462 17.5997 42.1051 17.699 42.0488C17.7018 42.0467 17.7039 42.0439 17.7074 42.0439C18.036 42.1835 18.8321 42.5024 20.0062 42.8491V42.5524C18.903 42.2238 18.1464 41.9223 17.8297 41.7869C17.8297 41.5694 17.8283 41.0699 17.8255 40.3502C17.8213 39.0927 17.8158 37.1759 17.8116 35.0028C18.2187 35.0889 19.0836 35.2758 20.0056 35.4488V35.346L21.0532 35.2848C19.7777 35.0674 18.3118 34.8221 17.8116 34.7131C17.8116 34.3331 17.8102 33.9475 17.8102 33.5543C18.168 33.6501 20.6704 34.3018 24.2594 34.6512C24.5769 34.8965 24.8951 35.141 25.1653 35.346H25.5461C25.5461 35.346 24.0468 34.2031 23.1527 33.5022C23.0805 33.6036 23.0985 33.7425 23.1951 33.8203C23.3729 33.9614 23.5966 34.1364 23.837 34.3247C20.2584 33.9405 17.8734 33.2778 17.8415 33.2687C17.831 33.2673 17.822 33.268 17.8109 33.2673C17.8109 32.2968 17.8081 31.2936 17.8081 30.298C18.1068 30.0507 19.3372 29.9229 20.4752 29.9229C20.5481 29.9229 20.61 29.975 20.6524 29.9229C20.5898 29.7978 20.5315 29.7103 20.4766 29.5797L20.4752 29.4546C19.0906 29.4546 18.5598 29.5283 17.6643 29.1503C16.8799 28.8197 16.2846 27.7657 16.3457 25.2633C16.3756 24.0795 16.7243 22.615 16.7243 22.615C16.9723 21.534 17.3399 20.3085 17.8616 18.9232C18.2972 17.813 18.6856 17.285 18.9405 17.0328L19.3219 16.6014C19.5415 15.6058 19.6269 14.877 19.3699 14.2025C19.3407 14.1219 19.3122 14.0406 19.2837 13.9607C19.2837 13.5147 19.5185 12.2419 20.3571 11.2755C20.5523 11.5764 21.2985 12.5406 22.697 12.5406C22.8512 12.5406 23.011 12.5295 23.1763 12.5038C24.4338 12.3176 25.0069 11.3283 25.1952 10.9087C25.7878 11.4409 26.1081 11.8431 26.2373 12.162C25.8135 12.3718 24.8208 12.8102 24.0565 13.8072V13.8085C24.0552 13.8092 24.0552 13.8092 24.0552 13.8092C24.0482 13.8169 23.8843 14.0732 24.0385 14.2525V14.2539V14.2552C24.0892 14.3476 24.5533 14.8756 26.377 15.0063C26.6785 15.2807 27.4462 15.7642 28.5883 15.7642C29.7436 15.7642 30.4703 15.28 30.7475 15.0063C32.5941 14.8694 32.9116 14.2976 32.9644 14.2233C33.0728 14.0732 32.9818 13.8745 32.9339 13.8092C32.1731 12.8172 31.2463 12.3788 30.8483 12.1676C30.9775 11.8452 31.3061 11.4214 31.9237 10.8816C32.1016 11.2832 32.6685 12.3128 33.9537 12.5031C34.1225 12.5288 34.2823 12.54 34.4338 12.54C35.8128 12.54 36.5562 11.6027 36.7667 11.2894C37.6358 12.2822 37.872 13.5876 37.872 13.96L37.8748 13.9628C37.8463 14.0406 37.8178 14.1198 37.7852 14.2018C37.4851 14.9875 37.5101 15.8594 37.7296 16.6007L38.4716 17.4496C38.7043 17.7796 38.9753 18.2764 39.2288 19.0156C39.8221 20.5961 40.2126 21.9661 40.4662 23.1416C40.6572 24.0204 40.7663 25.4175 40.7663 25.4175C40.8476 27.4871 40.2383 28.7842 39.4553 29.1218C38.6223 29.4817 37.9193 29.4664 36.9849 29.4664C36.9744 29.4664 36.9675 29.4699 36.9585 29.4706V29.5762H36.9341C36.9341 29.7054 36.7709 29.809 36.9001 29.809C37.6963 29.809 38.5091 29.7923 39.3018 30.2973C39.3018 31.3415 39.3032 32.3475 39.3046 33.3604C38.1666 33.6668 36.9084 33.8975 35.6926 34.0711C35.7517 34.1538 35.8094 34.2414 35.8677 34.331C36.9015 34.1747 37.938 33.9725 38.869 33.762C39.2288 33.68 39.3053 33.8412 39.3053 34.2545C39.3053 34.6658 39.2393 34.7165 38.9176 34.7825C38.3333 34.9048 37.3447 35.1084 36.395 35.2758C36.4346 35.364 36.477 35.453 36.5131 35.5433C37.6664 35.3369 38.8551 35.0868 39.3067 34.991C39.3115 37.1571 39.3192 39.0718 39.3219 40.3494C39.3219 41.065 39.324 41.568 39.324 41.7855C38.8405 41.9869 37.3551 42.5622 35.173 43.0429C35.0632 43.1708 34.95 43.2937 34.8353 43.4049C37.2711 42.9012 38.9315 42.2572 39.4449 42.0411C39.4484 42.0439 39.4505 42.046 39.4546 42.0488C39.5554 42.1044 39.8819 42.5462 39.9541 43.0756C40.0076 43.4702 39.9048 43.7988 39.6485 44.0558ZM32.3287 16.2401C32.2878 16.2401 32.2502 16.2443 32.219 16.2505C30.9678 16.5048 28.7279 16.5117 28.4806 16.5117C28.2326 16.5117 25.9942 16.5048 24.7422 16.2505C24.7082 16.245 24.6714 16.2401 24.6318 16.2401C24.2698 16.2401 23.787 16.5333 23.6064 17.0793C23.498 17.3989 23.5695 17.7789 23.7974 18.095C24.0031 18.3799 24.2858 18.548 24.5547 18.548H28.4799H32.4038C32.6747 18.548 32.9547 18.3792 33.161 18.095C33.3889 17.7783 33.4605 17.3989 33.3549 17.0793C33.1728 16.534 32.69 16.2401 32.3287 16.2401ZM31.9967 16.7215C32.1023 16.7049 32.2044 16.6806 32.3016 16.6674C32.467 16.6444 32.7157 16.732 32.8039 16.9355C32.8213 16.9779 32.8081 17.078 32.565 17.1308C32.3927 17.1676 32.1599 17.1995 31.866 17.235L31.9967 16.7215ZM26.3096 16.8633C27.3232 16.9321 28.4806 16.9355 28.4806 16.9355C28.4806 16.9355 29.6367 16.9321 30.6496 16.8633L30.858 17.3239C30.1487 17.3767 29.3032 17.4038 28.4806 17.4038C27.6574 17.4038 26.8126 17.3767 26.1018 17.3239L26.3096 16.8633ZM24.1573 16.9355C24.2462 16.732 24.4928 16.6444 24.6589 16.6674C24.7568 16.6806 24.8583 16.7049 24.9639 16.7215L25.0945 17.235C24.7999 17.1995 24.5686 17.1676 24.3942 17.1308C24.1538 17.0773 24.1385 16.9779 24.1573 16.9355ZM24.5554 18.1249C24.4289 18.1249 24.2622 18.0131 24.1441 17.8463C24.0718 17.7484 24.026 17.6421 24.0017 17.5392C23.9655 17.3836 24.0836 17.3364 24.2733 17.3683C24.4838 17.4038 24.7728 17.4566 25.1633 17.5003L25.321 18.1249H24.5554ZM25.4766 17.7067C25.4307 17.5309 25.239 16.7612 25.239 16.7612C25.4946 16.7931 25.7656 16.8209 26.0379 16.8431C26.0379 16.8431 25.7079 17.5795 25.6489 17.7067C25.5829 17.8505 25.5245 17.8915 25.4766 17.7067ZM28.4806 18.1249H25.7427L25.9907 17.5733L25.9935 17.5747C26.732 17.6316 27.6178 17.6594 28.4806 17.6594C29.3435 17.6594 30.2272 17.6316 30.9678 17.5747V17.5733L31.2172 18.1249H28.4806ZM31.3117 17.7067C31.2533 17.5788 30.9219 16.8431 30.9219 16.8431C31.1949 16.8209 31.4673 16.7931 31.7222 16.7612C31.7222 16.7612 31.5305 17.5309 31.486 17.7067C31.4374 17.8915 31.377 17.8505 31.3117 17.7067ZM32.8165 17.8463C32.6983 18.0131 32.5316 18.1249 32.4052 18.1249H31.6403L31.7987 17.5003C32.1877 17.4566 32.4788 17.4038 32.6865 17.3683C32.8762 17.3364 32.9964 17.3836 32.9589 17.5392C32.9352 17.6421 32.8894 17.7484 32.8165 17.8463Z" fill="#8F141B"/>
</svg>
